G04*
G04 #@! TF.GenerationSoftware,Altium Limited,Altium Designer,22.6.1 (34)*
G04*
G04 Layer_Color=255*
%FSLAX25Y25*%
%MOIN*%
G70*
G04*
G04 #@! TF.SameCoordinates,4A999195-7229-471D-A063-F470427C1832*
G04*
G04*
G04 #@! TF.FilePolarity,Positive*
G04*
G01*
G75*
%ADD13C,0.00787*%
%ADD14C,0.01000*%
%ADD16C,0.00600*%
%ADD24R,0.03543X0.03740*%
%ADD26R,0.03740X0.03543*%
%ADD28R,0.03543X0.03740*%
%ADD34R,0.03740X0.03543*%
%ADD58C,0.03937*%
%ADD59C,0.03150*%
%ADD65R,0.02165X0.07087*%
D13*
X11836Y110261D02*
Y118135D01*
Y25D02*
Y7899D01*
X25D02*
X11836D01*
X25Y110261D02*
X11836D01*
Y25D02*
X340576D01*
Y118135D01*
X11836D02*
X340576D01*
X25Y7899D02*
Y110261D01*
D14*
X350362Y13874D02*
X352362Y7874D01*
X354362Y13874D01*
X352362Y110236D02*
X354362Y104236D01*
X350362D02*
X352362Y110236D01*
Y7874D02*
Y42360D01*
Y72551D02*
Y110236D01*
X13780Y7874D02*
X353362D01*
X13780Y110236D02*
X353362D01*
X11836Y150591D02*
X17836Y152591D01*
X11836Y150591D02*
X17836Y148591D01*
X334576D02*
X340576Y150591D01*
X334576Y152591D02*
X340576Y150591D01*
X11836D02*
X159511D01*
X189702D02*
X340576D01*
X11836Y119529D02*
Y151591D01*
X340576Y119529D02*
Y151591D01*
X364173Y118135D02*
X366173Y112135D01*
X362173D02*
X364173Y118135D01*
X362173Y6025D02*
X364173Y25D01*
X366173Y6025D01*
X364173Y72576D02*
Y118135D01*
Y25D02*
Y42384D01*
X341970Y118135D02*
X365173D01*
X341970Y25D02*
X365173D01*
X25Y166339D02*
X6025Y168339D01*
X25Y166339D02*
X6025Y164339D01*
X334576D02*
X340576Y166339D01*
X334576Y168339D02*
X340576Y166339D01*
X25D02*
X153605D01*
X183796D02*
X340576D01*
X25Y111655D02*
Y167339D01*
X340576Y119529D02*
Y167339D01*
D16*
X355961Y47958D02*
Y43960D01*
X351962Y47958D01*
X350963D01*
X349963Y46959D01*
Y44959D01*
X350963Y43960D01*
X349963Y53956D02*
X350963Y51957D01*
X352962Y49957D01*
X354961D01*
X355961Y50957D01*
Y52957D01*
X354961Y53956D01*
X353962D01*
X352962Y52957D01*
Y49957D01*
X355961Y55956D02*
X354961D01*
Y56955D01*
X355961D01*
Y55956D01*
X350963Y60954D02*
X349963Y61954D01*
Y63953D01*
X350963Y64953D01*
X354961D01*
X355961Y63953D01*
Y61954D01*
X354961Y60954D01*
X350963D01*
Y66952D02*
X349963Y67952D01*
Y69951D01*
X350963Y70951D01*
X354961D01*
X355961Y69951D01*
Y67952D01*
X354961Y66952D01*
X350963D01*
X161110Y151990D02*
X162110Y152990D01*
X164110D01*
X165109Y151990D01*
Y150990D01*
X164110Y149991D01*
X165109Y148991D01*
Y147991D01*
X164110Y146992D01*
X162110D01*
X161110Y147991D01*
Y148991D01*
X162110Y149991D01*
X161110Y150990D01*
Y151990D01*
X162110Y149991D02*
X164110D01*
X167109Y151990D02*
X168108Y152990D01*
X170107D01*
X171107Y151990D01*
Y150990D01*
X170107Y149991D01*
X169108D01*
X170107D01*
X171107Y148991D01*
Y147991D01*
X170107Y146992D01*
X168108D01*
X167109Y147991D01*
X173107Y146992D02*
Y147991D01*
X174106D01*
Y146992D01*
X173107D01*
X182104Y152990D02*
X178105D01*
Y149991D01*
X180104Y150990D01*
X181104D01*
X182104Y149991D01*
Y147991D01*
X181104Y146992D01*
X179105D01*
X178105Y147991D01*
X184103Y151990D02*
X185103Y152990D01*
X187102D01*
X188102Y151990D01*
Y147991D01*
X187102Y146992D01*
X185103D01*
X184103Y147991D01*
Y151990D01*
X362774Y43984D02*
X361774Y44984D01*
Y46984D01*
X362774Y47983D01*
X363773D01*
X364773Y46984D01*
Y45984D01*
Y46984D01*
X365773Y47983D01*
X366773D01*
X367772Y46984D01*
Y44984D01*
X366773Y43984D01*
X362774Y49983D02*
X361774Y50982D01*
Y52982D01*
X362774Y53981D01*
X366773D01*
X367772Y52982D01*
Y50982D01*
X366773Y49983D01*
X362774D01*
X367772Y55981D02*
X366773D01*
Y56980D01*
X367772D01*
Y55981D01*
X362774Y60979D02*
X361774Y61979D01*
Y63978D01*
X362774Y64978D01*
X366773D01*
X367772Y63978D01*
Y61979D01*
X366773Y60979D01*
X362774D01*
Y66977D02*
X361774Y67977D01*
Y69976D01*
X362774Y70976D01*
X366773D01*
X367772Y69976D01*
Y67977D01*
X366773Y66977D01*
X362774D01*
X155205Y167738D02*
X156205Y168738D01*
X158204D01*
X159204Y167738D01*
Y166738D01*
X158204Y165739D01*
X159204Y164739D01*
Y163739D01*
X158204Y162740D01*
X156205D01*
X155205Y163739D01*
Y164739D01*
X156205Y165739D01*
X155205Y166738D01*
Y167738D01*
X156205Y165739D02*
X158204D01*
X165202Y168738D02*
X163202Y167738D01*
X161203Y165739D01*
Y163739D01*
X162203Y162740D01*
X164202D01*
X165202Y163739D01*
Y164739D01*
X164202Y165739D01*
X161203D01*
X167201Y162740D02*
Y163739D01*
X168201D01*
Y162740D01*
X167201D01*
X176198Y168738D02*
X172199D01*
Y165739D01*
X174199Y166738D01*
X175198D01*
X176198Y165739D01*
Y163739D01*
X175198Y162740D01*
X173199D01*
X172199Y163739D01*
X178198Y167738D02*
X179197Y168738D01*
X181196D01*
X182196Y167738D01*
Y163739D01*
X181196Y162740D01*
X179197D01*
X178198Y163739D01*
Y167738D01*
D24*
X134964Y16716D02*
D03*
X141066D02*
D03*
X122518D02*
D03*
X128620D02*
D03*
X147409D02*
D03*
X153512D02*
D03*
D26*
X145881Y41903D02*
D03*
Y35801D02*
D03*
X146955Y29261D02*
D03*
Y23158D02*
D03*
X127334Y29261D02*
D03*
Y23158D02*
D03*
X133875Y29261D02*
D03*
Y23158D02*
D03*
X107714Y29261D02*
D03*
Y23158D02*
D03*
X114254Y29261D02*
D03*
Y23158D02*
D03*
X120794Y29261D02*
D03*
Y23158D02*
D03*
X140415Y29261D02*
D03*
Y23158D02*
D03*
X100100Y41903D02*
D03*
Y35801D02*
D03*
X119720Y41903D02*
D03*
Y35801D02*
D03*
X106640Y41903D02*
D03*
Y35801D02*
D03*
X113180Y41903D02*
D03*
Y35801D02*
D03*
X126261Y41903D02*
D03*
Y35801D02*
D03*
X132801Y41903D02*
D03*
Y35801D02*
D03*
X139341Y41903D02*
D03*
Y35801D02*
D03*
D28*
X141814Y59750D02*
D03*
Y65852D02*
D03*
X148214Y59750D02*
D03*
Y65852D02*
D03*
X135414Y59750D02*
D03*
Y65852D02*
D03*
X154614Y59750D02*
D03*
Y65852D02*
D03*
X161014Y59750D02*
D03*
Y65852D02*
D03*
X167414Y59750D02*
D03*
Y65852D02*
D03*
X129014Y59750D02*
D03*
Y65852D02*
D03*
X90614Y59750D02*
D03*
Y65852D02*
D03*
X97014Y59750D02*
D03*
Y65852D02*
D03*
X103414Y59750D02*
D03*
Y65852D02*
D03*
X109814Y59750D02*
D03*
Y65852D02*
D03*
X116214Y59750D02*
D03*
Y65852D02*
D03*
X122614Y59750D02*
D03*
Y65852D02*
D03*
X151199Y75498D02*
D03*
Y81600D02*
D03*
X138400Y75498D02*
D03*
Y81600D02*
D03*
X144799Y75498D02*
D03*
Y81600D02*
D03*
X163999Y75498D02*
D03*
Y81600D02*
D03*
X157599Y75498D02*
D03*
Y81600D02*
D03*
X132000Y75498D02*
D03*
Y81600D02*
D03*
X119200Y75498D02*
D03*
Y81600D02*
D03*
X125600Y75498D02*
D03*
Y81600D02*
D03*
X112800Y75498D02*
D03*
Y81600D02*
D03*
X106400Y75498D02*
D03*
Y81600D02*
D03*
X93599Y75498D02*
D03*
Y81600D02*
D03*
X87199Y75498D02*
D03*
Y81600D02*
D03*
X99999Y75498D02*
D03*
Y81600D02*
D03*
X99044Y97151D02*
D03*
Y103253D02*
D03*
X111844Y97151D02*
D03*
Y103253D02*
D03*
X105444Y97151D02*
D03*
Y103253D02*
D03*
X92644Y97151D02*
D03*
Y103253D02*
D03*
X137444Y97151D02*
D03*
Y103253D02*
D03*
X118244Y97151D02*
D03*
Y103253D02*
D03*
X124644Y97151D02*
D03*
Y103253D02*
D03*
X131044Y97151D02*
D03*
Y103253D02*
D03*
D34*
X116076Y16787D02*
D03*
X109974D02*
D03*
D58*
X209646Y104842D02*
D03*
Y99843D02*
D03*
Y94842D02*
D03*
Y89842D02*
D03*
Y84842D02*
D03*
Y79843D02*
D03*
Y74843D02*
D03*
Y69842D02*
D03*
Y64842D02*
D03*
Y59842D02*
D03*
Y54843D02*
D03*
Y49843D02*
D03*
Y44842D02*
D03*
Y39843D02*
D03*
Y34843D02*
D03*
Y29842D02*
D03*
Y24843D02*
D03*
Y19842D02*
D03*
Y14842D02*
D03*
Y9843D02*
D03*
X199803Y104842D02*
D03*
Y99843D02*
D03*
Y94842D02*
D03*
Y89842D02*
D03*
Y84842D02*
D03*
Y79843D02*
D03*
Y74843D02*
D03*
Y69842D02*
D03*
Y64842D02*
D03*
Y59842D02*
D03*
Y54843D02*
D03*
Y49843D02*
D03*
Y44842D02*
D03*
Y39843D02*
D03*
Y34843D02*
D03*
Y29842D02*
D03*
Y24843D02*
D03*
Y19842D02*
D03*
Y14842D02*
D03*
Y9843D02*
D03*
X73819Y104842D02*
D03*
Y99843D02*
D03*
Y94842D02*
D03*
Y89842D02*
D03*
Y84842D02*
D03*
Y79843D02*
D03*
Y74843D02*
D03*
Y69842D02*
D03*
Y64842D02*
D03*
Y59842D02*
D03*
Y54843D02*
D03*
Y49843D02*
D03*
Y44842D02*
D03*
Y39843D02*
D03*
Y34843D02*
D03*
Y29842D02*
D03*
Y24843D02*
D03*
Y19842D02*
D03*
Y14842D02*
D03*
Y9843D02*
D03*
X62992Y105394D02*
D03*
Y100394D02*
D03*
Y95394D02*
D03*
Y90394D02*
D03*
Y85394D02*
D03*
Y80394D02*
D03*
Y75394D02*
D03*
Y70394D02*
D03*
Y65394D02*
D03*
Y60394D02*
D03*
Y55394D02*
D03*
Y50394D02*
D03*
Y45394D02*
D03*
Y40394D02*
D03*
Y35394D02*
D03*
Y30394D02*
D03*
Y25394D02*
D03*
Y20394D02*
D03*
Y15394D02*
D03*
Y10394D02*
D03*
D59*
X248031Y51181D02*
D03*
X254921Y54134D02*
D03*
X251969Y66929D02*
D03*
Y82677D02*
D03*
X303150Y22638D02*
D03*
X313976D02*
D03*
X254921Y44291D02*
D03*
X247047Y40354D02*
D03*
X269685Y16732D02*
D03*
X286417Y14764D02*
D03*
X249016Y97441D02*
D03*
X265748Y40354D02*
D03*
D65*
X289764Y84252D02*
D03*
Y67323D02*
D03*
X292913Y84252D02*
D03*
Y67323D02*
D03*
X296063Y84252D02*
D03*
Y67323D02*
D03*
X299213Y84252D02*
D03*
Y67323D02*
D03*
X302362Y84252D02*
D03*
Y67323D02*
D03*
X305512Y84252D02*
D03*
Y67323D02*
D03*
X308661Y84252D02*
D03*
Y67323D02*
D03*
M02*
