G04*
G04 #@! TF.GenerationSoftware,Altium Limited,Altium Designer,22.6.1 (34)*
G04*
G04 Layer_Color=16711935*
%FSLAX25Y25*%
%MOIN*%
G70*
G04*
G04 #@! TF.SameCoordinates,4A999195-7229-471D-A063-F470427C1832*
G04*
G04*
G04 #@! TF.FilePolarity,Positive*
G04*
G01*
G75*
%ADD11C,0.00394*%
%ADD13C,0.00787*%
%ADD14C,0.01000*%
%ADD16C,0.00600*%
%ADD67C,0.00400*%
D11*
X18307Y20276D02*
G03*
X18307Y20276I-1969J0D01*
G01*
X129528Y77362D02*
G03*
X129528Y77362I-1969J0D01*
G01*
X163976Y76378D02*
G03*
X163976Y76378I-1969J0D01*
G01*
X94095D02*
G03*
X94095Y76378I-1969J0D01*
G01*
X232874Y74803D02*
G03*
X232874Y74803I-1575J0D01*
G01*
X39961Y54724D02*
G03*
X39961Y54724I-1969J0D01*
G01*
X249532Y51181D02*
G03*
X249532Y51181I-1500J0D01*
G01*
X256421Y54134D02*
G03*
X256421Y54134I-1500J0D01*
G01*
X40945Y20276D02*
G03*
X40945Y20276I-1969J0D01*
G01*
X253468Y66929D02*
G03*
X253468Y66929I-1500J0D01*
G01*
Y82677D02*
G03*
X253468Y82677I-1500J0D01*
G01*
X39961Y88189D02*
G03*
X39961Y88189I-1969J0D01*
G01*
X276378Y99606D02*
G03*
X276378Y99606I-1969J0D01*
G01*
X304650Y22638D02*
G03*
X304650Y22638I-1500J0D01*
G01*
X233858Y94488D02*
G03*
X233858Y94488I-1575J0D01*
G01*
X315476Y22638D02*
G03*
X315476Y22638I-1500J0D01*
G01*
X256421Y44291D02*
G03*
X256421Y44291I-1500J0D01*
G01*
X248547Y40354D02*
G03*
X248547Y40354I-1500J0D01*
G01*
X271185Y16732D02*
G03*
X271185Y16732I-1500J0D01*
G01*
X287917Y14764D02*
G03*
X287917Y14764I-1500J0D01*
G01*
X250516Y97441D02*
G03*
X250516Y97441I-1500J0D01*
G01*
X18307Y88189D02*
G03*
X18307Y88189I-1969J0D01*
G01*
X267248Y40354D02*
G03*
X267248Y40354I-1500J0D01*
G01*
X12795Y16732D02*
X32480D01*
X12795Y32480D02*
X32480D01*
X12795Y16732D02*
Y32480D01*
X32480Y16732D02*
Y32480D01*
X329331Y11220D02*
Y16339D01*
X336024Y11220D02*
Y16339D01*
X329331D02*
X336024D01*
X329331Y11220D02*
X336024D01*
X16929Y47244D02*
X30315D01*
X16929Y72835D02*
X30315D01*
X16929Y47244D02*
Y72835D01*
X30315Y47244D02*
Y72835D01*
X124016Y60827D02*
Y80905D01*
X141732Y60827D02*
Y80905D01*
X124016D02*
X141732D01*
X124016Y60827D02*
X141732D01*
X158465Y59842D02*
Y79921D01*
X176181Y59842D02*
Y79921D01*
X158465D02*
X176181D01*
X158465Y59842D02*
X176181D01*
X88583D02*
Y79921D01*
X106299Y59842D02*
Y79921D01*
X88583D02*
X106299D01*
X88583Y59842D02*
X106299D01*
X228150Y69685D02*
Y77953D01*
X240354Y69685D02*
Y77953D01*
X228150D02*
X240354D01*
X228150Y69685D02*
X240354D01*
X223721Y32087D02*
X234941D01*
X223721Y38780D02*
X234941D01*
Y32087D02*
Y38780D01*
X223721Y32087D02*
Y38780D01*
X224705Y19291D02*
X235925D01*
X224705Y25984D02*
X235925D01*
Y19291D02*
Y25984D01*
X224705Y19291D02*
Y25984D01*
X222441Y43898D02*
X233661D01*
X222441Y50591D02*
X233661D01*
Y43898D02*
Y50591D01*
X222441Y43898D02*
Y50591D01*
X224508Y58366D02*
X232776D01*
Y63681D01*
X224508D02*
X232776D01*
X224508Y58366D02*
Y63681D01*
X131851Y104600D02*
X135001D01*
X131851Y110899D02*
X135001D01*
X131851Y104600D02*
Y110899D01*
X135001Y104600D02*
Y110899D01*
X125311Y104600D02*
X128461D01*
X125311Y110899D02*
X128461D01*
X125311Y104600D02*
Y110899D01*
X128461Y104600D02*
Y110899D01*
X151472Y104600D02*
X154621D01*
X151472Y110899D02*
X154621D01*
X151472Y104600D02*
Y110899D01*
X154621Y104600D02*
Y110899D01*
X158012Y104600D02*
X161161D01*
X158012Y110899D02*
X161161D01*
X158012Y104600D02*
Y110899D01*
X161161Y104600D02*
Y110899D01*
X105838Y10531D02*
X108987D01*
X105838Y16831D02*
X108987D01*
X105838Y10531D02*
Y16831D01*
X108987Y10531D02*
Y16831D01*
X184320Y10531D02*
X187469D01*
X184320Y16831D02*
X187469D01*
X184320Y10531D02*
Y16831D01*
X187469Y10531D02*
Y16831D01*
X171239Y10531D02*
X174389D01*
X171239Y16831D02*
X174389D01*
X171239Y10531D02*
Y16831D01*
X174389Y10531D02*
Y16831D01*
X190860Y10531D02*
X194009D01*
X190860Y16831D02*
X194009D01*
X190860Y10531D02*
Y16831D01*
X194009Y10531D02*
Y16831D01*
X177779Y10531D02*
X180929D01*
X177779Y16831D02*
X180929D01*
X177779Y10531D02*
Y16831D01*
X180929Y10531D02*
Y16831D01*
X112464Y36839D02*
X115613D01*
X112464Y43139D02*
X115613D01*
X112464Y36839D02*
Y43139D01*
X115613Y36839D02*
Y43139D01*
X92843Y36839D02*
X95993D01*
X92843Y43139D02*
X95993D01*
X92843Y36839D02*
Y43139D01*
X95993Y36839D02*
Y43139D01*
X99383Y36839D02*
X102533D01*
X99383Y43139D02*
X102533D01*
X99383Y36839D02*
Y43139D01*
X102533Y36839D02*
Y43139D01*
X119004Y36839D02*
X122154D01*
X119004Y43139D02*
X122154D01*
X119004Y36839D02*
Y43139D01*
X122154Y36839D02*
Y43139D01*
X105924Y36839D02*
X109073D01*
X105924Y43139D02*
X109073D01*
X105924Y36839D02*
Y43139D01*
X109073Y36839D02*
Y43139D01*
X131998Y10531D02*
X135148D01*
X131998Y16831D02*
X135148D01*
X131998Y10531D02*
Y16831D01*
X135148Y10531D02*
Y16831D01*
X125458Y10531D02*
X128608D01*
X125458Y16831D02*
X128608D01*
X125458Y10531D02*
Y16831D01*
X128608Y10531D02*
Y16831D01*
X118918Y10531D02*
X122068D01*
X118918Y16831D02*
X122068D01*
X118918Y10531D02*
Y16831D01*
X122068Y10531D02*
Y16831D01*
X112378Y10531D02*
X115527D01*
X112378Y16831D02*
X115527D01*
X112378Y10531D02*
Y16831D01*
X115527Y10531D02*
Y16831D01*
X158159Y10531D02*
X161309D01*
X158159Y16831D02*
X161309D01*
X158159Y10531D02*
Y16831D01*
X161309Y10531D02*
Y16831D01*
X138539Y10531D02*
X141688D01*
X138539Y16831D02*
X141688D01*
X138539Y10531D02*
Y16831D01*
X141688Y10531D02*
Y16831D01*
X145079Y10531D02*
X148228D01*
X145079Y16831D02*
X148228D01*
X145079Y10531D02*
Y16831D01*
X148228Y10531D02*
Y16831D01*
X164699Y10531D02*
X167849D01*
X164699Y16831D02*
X167849D01*
X164699Y10531D02*
Y16831D01*
X167849Y10531D02*
Y16831D01*
X151619Y10531D02*
X154769D01*
X151619Y16831D02*
X154769D01*
X151619Y10531D02*
Y16831D01*
X154769Y10531D02*
Y16831D01*
X79677Y10531D02*
X82827D01*
X79677Y16831D02*
X82827D01*
X79677Y10531D02*
Y16831D01*
X82827Y10531D02*
Y16831D01*
X99298Y10531D02*
X102447D01*
X99298Y16831D02*
X102447D01*
X99298Y10531D02*
Y16831D01*
X102447Y10531D02*
Y16831D01*
X92757Y10531D02*
X95907D01*
X92757Y16831D02*
X95907D01*
X92757Y10531D02*
Y16831D01*
X95907Y10531D02*
Y16831D01*
X144931Y104600D02*
X148081D01*
X144931Y110899D02*
X148081D01*
X144931Y104600D02*
Y110899D01*
X148081Y104600D02*
Y110899D01*
X138391Y104600D02*
X141541D01*
X138391Y110899D02*
X141541D01*
X138391Y104600D02*
Y110899D01*
X141541Y104600D02*
Y110899D01*
X86217Y10531D02*
X89367D01*
X86217Y16831D02*
X89367D01*
X86217Y10531D02*
Y16831D01*
X89367Y10531D02*
Y16831D01*
X138625Y36839D02*
X141774D01*
X138625Y43139D02*
X141774D01*
X138625Y36839D02*
Y43139D01*
X141774Y36839D02*
Y43139D01*
X164785Y36839D02*
X167935D01*
X164785Y43139D02*
X167935D01*
X164785Y36839D02*
Y43139D01*
X167935Y36839D02*
Y43139D01*
X132084Y36839D02*
X135234D01*
X132084Y43139D02*
X135234D01*
X132084Y36839D02*
Y43139D01*
X135234Y36839D02*
Y43139D01*
X158245Y36839D02*
X161395D01*
X158245Y43139D02*
X161395D01*
X158245Y36839D02*
Y43139D01*
X161395Y36839D02*
Y43139D01*
X324114Y25197D02*
Y33858D01*
X329429Y25197D02*
Y33858D01*
X324114D02*
X329429D01*
X324114Y25197D02*
X329429D01*
X151705Y36839D02*
X154854D01*
X151705Y43139D02*
X154854D01*
X151705Y36839D02*
Y43139D01*
X154854Y36839D02*
Y43139D01*
X117697Y91957D02*
X120847D01*
X117697Y98257D02*
X120847D01*
X117697Y91957D02*
Y98257D01*
X120847Y91957D02*
Y98257D01*
X125544Y36839D02*
X128694D01*
X125544Y43139D02*
X128694D01*
X125544Y36839D02*
Y43139D01*
X128694Y36839D02*
Y43139D01*
X143858Y91957D02*
X147007D01*
X143858Y98257D02*
X147007D01*
X143858Y91957D02*
Y98257D01*
X147007Y91957D02*
Y98257D01*
X150398Y91957D02*
X153547D01*
X150398Y98257D02*
X153547D01*
X150398Y91957D02*
Y98257D01*
X153547Y91957D02*
Y98257D01*
X156938Y91957D02*
X160088D01*
X156938Y98257D02*
X160088D01*
X156938Y91957D02*
Y98257D01*
X160088Y91957D02*
Y98257D01*
X124237Y91957D02*
X127387D01*
X124237Y98257D02*
X127387D01*
X124237Y91957D02*
Y98257D01*
X127387Y91957D02*
Y98257D01*
X130777Y91957D02*
X133927D01*
X130777Y98257D02*
X133927D01*
X130777Y91957D02*
Y98257D01*
X133927Y91957D02*
Y98257D01*
X137317Y91957D02*
X140467D01*
X137317Y98257D02*
X140467D01*
X137317Y91957D02*
Y98257D01*
X140467Y91957D02*
Y98257D01*
X121061Y84039D02*
Y87189D01*
X127360Y84039D02*
Y87189D01*
X121061D02*
X127360D01*
X121061Y84039D02*
X127360D01*
X133507D02*
Y87189D01*
X139806Y84039D02*
Y87189D01*
X133507D02*
X139806D01*
X133507Y84039D02*
X139806D01*
X96170D02*
Y87189D01*
X102469Y84039D02*
Y87189D01*
X96170D02*
X102469D01*
X96170Y84039D02*
X102469D01*
X108615D02*
Y87189D01*
X114915Y84039D02*
Y87189D01*
X108615D02*
X114915D01*
X108615Y84039D02*
X114915D01*
X145952D02*
Y87189D01*
X152252Y84039D02*
Y87189D01*
X145952D02*
X152252D01*
X145952Y84039D02*
X152252D01*
X91536Y91957D02*
X94686D01*
X91536Y98257D02*
X94686D01*
X91536Y91957D02*
Y98257D01*
X94686Y91957D02*
Y98257D01*
X84996Y91957D02*
X88146D01*
X84996Y98257D02*
X88146D01*
X84996Y91957D02*
Y98257D01*
X88146Y91957D02*
Y98257D01*
X177865Y36839D02*
X181015D01*
X177865Y43139D02*
X181015D01*
X177865Y36839D02*
Y43139D01*
X181015Y36839D02*
Y43139D01*
X111157Y91957D02*
X114306D01*
X111157Y98257D02*
X114306D01*
X111157Y91957D02*
Y98257D01*
X114306Y91957D02*
Y98257D01*
X98076Y91957D02*
X101226D01*
X98076Y98257D02*
X101226D01*
X98076Y91957D02*
Y98257D01*
X101226Y91957D02*
Y98257D01*
X104617Y91957D02*
X107766D01*
X104617Y98257D02*
X107766D01*
X104617Y91957D02*
Y98257D01*
X107766Y91957D02*
Y98257D01*
X171325Y36839D02*
X174475D01*
X171325Y43139D02*
X174475D01*
X171325Y36839D02*
Y43139D01*
X174475Y36839D02*
Y43139D01*
X145165Y36839D02*
X148314D01*
X145165Y43139D02*
X148314D01*
X145165Y36839D02*
Y43139D01*
X148314Y36839D02*
Y43139D01*
X54134Y51181D02*
Y66929D01*
X34449Y51181D02*
Y66929D01*
X54134D01*
X34449Y51181D02*
X54134D01*
X106397Y48990D02*
Y56076D01*
X102854D02*
X106397D01*
X102854Y48990D02*
Y56076D01*
Y48990D02*
X106397D01*
X151197D02*
Y56076D01*
X147653D02*
X151197D01*
X147653Y48990D02*
Y56076D01*
Y48990D02*
X151197D01*
X157597D02*
Y56076D01*
X154053D02*
X157597D01*
X154053Y48990D02*
Y56076D01*
Y48990D02*
X157597D01*
X144797D02*
Y56076D01*
X141253D02*
X144797D01*
X141253Y48990D02*
Y56076D01*
Y48990D02*
X144797D01*
X138397D02*
Y56076D01*
X134853D02*
X138397D01*
X134853Y48990D02*
Y56076D01*
Y48990D02*
X138397D01*
X131997D02*
Y56076D01*
X128454D02*
X131997D01*
X128454Y48990D02*
Y56076D01*
Y48990D02*
X131997D01*
X55118Y16732D02*
Y32480D01*
X35433Y16732D02*
Y32480D01*
X55118D01*
X35433Y16732D02*
X55118D01*
X54134Y84646D02*
Y100394D01*
X34449Y84646D02*
Y100394D01*
X54134D01*
X34449Y84646D02*
X54134D01*
X270866Y48425D02*
X325590D01*
X270866Y103150D02*
X325590D01*
Y48425D02*
Y103150D01*
X270866Y48425D02*
Y103150D01*
X178954Y22682D02*
Y29768D01*
X175410D02*
X178954D01*
X175410Y22682D02*
Y29768D01*
Y22682D02*
X178954D01*
X172554D02*
Y29768D01*
X169010D02*
X172554D01*
X169010Y22682D02*
Y29768D01*
Y22682D02*
X172554D01*
X102154D02*
Y29768D01*
X98610D02*
X102154D01*
X98610Y22682D02*
Y29768D01*
Y22682D02*
X102154D01*
X95754D02*
Y29768D01*
X92210D02*
X95754D01*
X92210Y22682D02*
Y29768D01*
Y22682D02*
X95754D01*
X274606Y24606D02*
Y32480D01*
X282480Y24606D02*
Y32480D01*
X274606D02*
X282480D01*
X274606Y24606D02*
X282480D01*
X89354Y22682D02*
Y29768D01*
X85810D02*
X89354D01*
X85810Y22682D02*
Y29768D01*
Y22682D02*
X89354D01*
X82954D02*
Y29768D01*
X79410D02*
X82954D01*
X79410Y22682D02*
Y29768D01*
Y22682D02*
X82954D01*
X127753D02*
Y29768D01*
X124210D02*
X127753D01*
X124210Y22682D02*
Y29768D01*
Y22682D02*
X127753D01*
X134153D02*
Y29768D01*
X130610D02*
X134153D01*
X130610Y22682D02*
Y29768D01*
Y22682D02*
X134153D01*
X121353D02*
Y29768D01*
X117810D02*
X121353D01*
X117810Y22682D02*
Y29768D01*
Y22682D02*
X121353D01*
X108554D02*
Y29768D01*
X105010D02*
X108554D01*
X105010Y22682D02*
Y29768D01*
Y22682D02*
X108554D01*
X183197Y48990D02*
Y56076D01*
X179654D02*
X183197D01*
X179654Y48990D02*
Y56076D01*
Y48990D02*
X183197D01*
X114953Y22682D02*
Y29768D01*
X111410D02*
X114953D01*
X111410Y22682D02*
Y29768D01*
Y22682D02*
X114953D01*
X10827Y55118D02*
Y62992D01*
X2953Y55118D02*
Y62992D01*
Y55118D02*
X10827D01*
X2953Y62992D02*
X10827D01*
X90187Y104108D02*
Y111195D01*
X86644D02*
X90187D01*
X86644Y104108D02*
Y111195D01*
Y104108D02*
X90187D01*
X176797Y48990D02*
Y56076D01*
X173254D02*
X176797D01*
X173254Y48990D02*
Y56076D01*
Y48990D02*
X176797D01*
X122187Y104108D02*
Y111195D01*
X118644D02*
X122187D01*
X118644Y104108D02*
Y111195D01*
Y104108D02*
X122187D01*
X115787D02*
Y111195D01*
X112244D02*
X115787D01*
X112244Y104108D02*
Y111195D01*
Y104108D02*
X115787D01*
X170397Y48990D02*
Y56076D01*
X166853D02*
X170397D01*
X166853Y48990D02*
Y56076D01*
Y48990D02*
X170397D01*
X163997D02*
Y56076D01*
X160453D02*
X163997D01*
X160453Y48990D02*
Y56076D01*
Y48990D02*
X163997D01*
X109387Y104108D02*
Y111195D01*
X105844D02*
X109387D01*
X105844Y104108D02*
Y111195D01*
Y104108D02*
X109387D01*
X96587D02*
Y111195D01*
X93044D02*
X96587D01*
X93044Y104108D02*
Y111195D01*
Y104108D02*
X96587D01*
X112797Y48990D02*
Y56076D01*
X109254D02*
X112797D01*
X109254Y48990D02*
Y56076D01*
Y48990D02*
X112797D01*
X125597D02*
Y56076D01*
X122054D02*
X125597D01*
X122054Y48990D02*
Y56076D01*
Y48990D02*
X125597D01*
X119197D02*
Y56076D01*
X115654D02*
X119197D01*
X115654Y48990D02*
Y56076D01*
Y48990D02*
X119197D01*
X102987Y104108D02*
Y111195D01*
X99444D02*
X102987D01*
X99444Y104108D02*
Y111195D01*
Y104108D02*
X102987D01*
X99997Y48990D02*
Y56076D01*
X96453D02*
X99997D01*
X96453Y48990D02*
Y56076D01*
Y48990D02*
X99997D01*
X229134Y85433D02*
X237402D01*
X229134Y97638D02*
X237402D01*
Y85433D02*
Y97638D01*
X229134Y85433D02*
Y97638D01*
X247013Y5118D02*
Y8661D01*
X254100D01*
Y5118D02*
Y8661D01*
X247013Y5118D02*
X254100D01*
X221728D02*
X228815D01*
Y8661D01*
X221728D02*
X228815D01*
X221728Y5118D02*
Y8661D01*
X227756Y12992D02*
X234842D01*
Y16535D01*
X227756D02*
X234842D01*
X227756Y12992D02*
Y16535D01*
X259656Y5118D02*
X266742D01*
Y8661D01*
X259656D02*
X266742D01*
X259656Y5118D02*
Y8661D01*
X310226Y5118D02*
X317313D01*
Y8661D01*
X310226D02*
X317313D01*
X310226Y5118D02*
Y8661D01*
X322868Y5118D02*
X329955D01*
Y8661D01*
X322868D02*
X329955D01*
X322868Y5118D02*
Y8661D01*
X251476Y27756D02*
X258563D01*
Y31299D01*
X251476D02*
X258563D01*
X251476Y27756D02*
Y31299D01*
X300394Y11713D02*
Y13878D01*
X296063Y11713D02*
X300394D01*
X296063D02*
Y13878D01*
X300394D01*
X281693Y10728D02*
Y12894D01*
X277362Y10728D02*
X281693D01*
X277362D02*
Y12894D01*
X281693D01*
X308268Y11713D02*
Y13878D01*
X303937Y11713D02*
X308268D01*
X303937D02*
Y13878D01*
X308268D01*
X318110Y11713D02*
Y13878D01*
X313779Y11713D02*
X318110D01*
X313779D02*
Y13878D01*
X318110D01*
X272298Y5118D02*
X279385D01*
Y8661D01*
X272298D02*
X279385D01*
X272298Y5118D02*
Y8661D01*
X297584Y5118D02*
X304670D01*
Y8661D01*
X297584D02*
X304670D01*
X297584Y5118D02*
Y8661D01*
X32480Y84646D02*
Y100394D01*
X12795Y84646D02*
Y100394D01*
X32480D01*
X12795Y84646D02*
X32480D01*
X284941Y5118D02*
X292028D01*
Y8661D01*
X284941D02*
X292028D01*
X284941Y5118D02*
Y8661D01*
X159754Y22682D02*
Y29768D01*
X156210D02*
X159754D01*
X156210Y22682D02*
Y29768D01*
Y22682D02*
X159754D01*
X166154D02*
Y29768D01*
X162610D02*
X166154D01*
X162610Y22682D02*
Y29768D01*
Y22682D02*
X166154D01*
X140553D02*
Y29768D01*
X137010D02*
X140553D01*
X137010Y22682D02*
Y29768D01*
Y22682D02*
X140553D01*
X153354D02*
Y29768D01*
X149810D02*
X153354D01*
X149810Y22682D02*
Y29768D01*
Y22682D02*
X153354D01*
X146953D02*
Y29768D01*
X143410D02*
X146953D01*
X143410Y22682D02*
Y29768D01*
Y22682D02*
X146953D01*
X191753D02*
Y29768D01*
X188210D02*
X191753D01*
X188210Y22682D02*
Y29768D01*
Y22682D02*
X191753D01*
X93597Y48990D02*
Y56076D01*
X90053D02*
X93597D01*
X90053Y48990D02*
Y56076D01*
Y48990D02*
X93597D01*
X185354Y22682D02*
Y29768D01*
X181810D02*
X185354D01*
X181810Y22682D02*
Y29768D01*
Y22682D02*
X185354D01*
D13*
X207614Y107343D02*
X211551D01*
Y7343D02*
Y107343D01*
X207614Y7343D02*
X211551D01*
X207614D02*
Y107343D01*
X197772D02*
X201709D01*
Y7343D02*
Y107343D01*
X197772Y7343D02*
X201709D01*
X197772D02*
Y107343D01*
X71787D02*
X75724D01*
Y7343D02*
Y107343D01*
X71787Y7343D02*
X75724D01*
X71787D02*
Y107343D01*
X66461Y107894D02*
X70398D01*
Y7894D02*
Y107894D01*
X66461Y7894D02*
X70398D01*
X66461D02*
Y107894D01*
X22048Y22638D02*
X24836D01*
X25394Y23195D01*
Y24310D01*
X24836Y24868D01*
X22048D01*
X25394Y28213D02*
Y25983D01*
X23164Y28213D01*
X22606D01*
X22048Y27656D01*
Y26541D01*
X22606Y25983D01*
X24409Y57284D02*
X21064D01*
Y58956D01*
X21622Y59514D01*
X22737D01*
X23294Y58956D01*
Y57284D01*
Y58399D02*
X24409Y59514D01*
Y60629D02*
Y61744D01*
Y61186D01*
X21064D01*
X21622Y60629D01*
X24409Y63417D02*
Y64532D01*
Y63974D01*
X21064D01*
X21622Y63417D01*
X130905Y71456D02*
Y68668D01*
X131463Y68110D01*
X132578D01*
X133136Y68668D01*
Y71456D01*
X134251Y68110D02*
X135366D01*
X134808D01*
Y71456D01*
X134251Y70898D01*
X137039Y68110D02*
X138154D01*
X137596D01*
Y71456D01*
X137039Y70898D01*
X165354Y70471D02*
Y67684D01*
X165912Y67126D01*
X167027D01*
X167585Y67684D01*
Y70471D01*
X168700Y67126D02*
X169815D01*
X169257D01*
Y70471D01*
X168700Y69914D01*
X173718Y67126D02*
X171487D01*
X173718Y69356D01*
Y69914D01*
X173160Y70471D01*
X172045D01*
X171487Y69914D01*
X95472Y70471D02*
Y67684D01*
X96030Y67126D01*
X97145D01*
X97703Y67684D01*
Y70471D01*
X98818Y67126D02*
X99933D01*
X99375D01*
Y70471D01*
X98818Y69914D01*
X101606D02*
X102163Y70471D01*
X103278D01*
X103836Y69914D01*
Y69356D01*
X103278Y68799D01*
X102721D01*
X103278D01*
X103836Y68241D01*
Y67684D01*
X103278Y67126D01*
X102163D01*
X101606Y67684D01*
X232283Y74408D02*
Y71621D01*
X232841Y71063D01*
X233956D01*
X234514Y71621D01*
Y74408D01*
X235629D02*
X237859D01*
Y73851D01*
X235629Y71621D01*
Y71063D01*
X227722Y61843D02*
X227165Y62401D01*
X226050D01*
X225492Y61843D01*
Y59613D01*
X226050Y59055D01*
X227165D01*
X227722Y59613D01*
X228837Y61843D02*
X229395Y62401D01*
X230510D01*
X231068Y61843D01*
Y61285D01*
X230510Y60728D01*
X231068Y60170D01*
Y59613D01*
X230510Y59055D01*
X229395D01*
X228837Y59613D01*
Y60170D01*
X229395Y60728D01*
X228837Y61285D01*
Y61843D01*
X229395Y60728D02*
X230510D01*
X131032Y108799D02*
X130474Y108241D01*
Y107126D01*
X131032Y106569D01*
X133262D01*
X133820Y107126D01*
Y108241D01*
X133262Y108799D01*
X130474Y112144D02*
Y109914D01*
X132147D01*
X131589Y111029D01*
Y111587D01*
X132147Y112144D01*
X133262D01*
X133820Y111587D01*
Y110471D01*
X133262Y109914D01*
X131032Y113259D02*
X130474Y113817D01*
Y114932D01*
X131032Y115489D01*
X133262D01*
X133820Y114932D01*
Y113817D01*
X133262Y113259D01*
X131032D01*
X124492Y108799D02*
X123934Y108241D01*
Y107126D01*
X124492Y106569D01*
X126722D01*
X127279Y107126D01*
Y108241D01*
X126722Y108799D01*
X127279Y111587D02*
X123934D01*
X125607Y109914D01*
Y112144D01*
X126722Y113259D02*
X127279Y113817D01*
Y114932D01*
X126722Y115489D01*
X124492D01*
X123934Y114932D01*
Y113817D01*
X124492Y113259D01*
X125049D01*
X125607Y113817D01*
Y115489D01*
X150652Y108799D02*
X150095Y108241D01*
Y107126D01*
X150652Y106569D01*
X152883D01*
X153440Y107126D01*
Y108241D01*
X152883Y108799D01*
X150095Y112144D02*
Y109914D01*
X151768D01*
X151210Y111029D01*
Y111587D01*
X151768Y112144D01*
X152883D01*
X153440Y111587D01*
Y110471D01*
X152883Y109914D01*
X153440Y113259D02*
Y114374D01*
Y113817D01*
X150095D01*
X150652Y113259D01*
X157193Y108799D02*
X156635Y108241D01*
Y107126D01*
X157193Y106569D01*
X159423D01*
X159980Y107126D01*
Y108241D01*
X159423Y108799D01*
X156635Y112144D02*
Y109914D01*
X158308D01*
X157750Y111029D01*
Y111587D01*
X158308Y112144D01*
X159423D01*
X159980Y111587D01*
Y110471D01*
X159423Y109914D01*
X159980Y114932D02*
X156635D01*
X158308Y113259D01*
Y115489D01*
X105018Y14730D02*
X104461Y14173D01*
Y13058D01*
X105018Y12500D01*
X107249D01*
X107806Y13058D01*
Y14173D01*
X107249Y14730D01*
X104461Y18076D02*
Y15845D01*
X106134D01*
X105576Y16961D01*
Y17518D01*
X106134Y18076D01*
X107249D01*
X107806Y17518D01*
Y16403D01*
X107249Y15845D01*
X104461Y21421D02*
X105018Y20306D01*
X106134Y19191D01*
X107249D01*
X107806Y19748D01*
Y20864D01*
X107249Y21421D01*
X106691D01*
X106134Y20864D01*
Y19191D01*
X183500Y14730D02*
X182943Y14173D01*
Y13058D01*
X183500Y12500D01*
X185731D01*
X186288Y13058D01*
Y14173D01*
X185731Y14730D01*
X182943Y18076D02*
Y15845D01*
X184616D01*
X184058Y16961D01*
Y17518D01*
X184616Y18076D01*
X185731D01*
X186288Y17518D01*
Y16403D01*
X185731Y15845D01*
X182943Y19191D02*
Y21421D01*
X183500D01*
X185731Y19191D01*
X186288D01*
X170420Y14730D02*
X169862Y14173D01*
Y13058D01*
X170420Y12500D01*
X172650D01*
X173208Y13058D01*
Y14173D01*
X172650Y14730D01*
X169862Y18076D02*
Y15845D01*
X171535D01*
X170978Y16961D01*
Y17518D01*
X171535Y18076D01*
X172650D01*
X173208Y17518D01*
Y16403D01*
X172650Y15845D01*
Y19191D02*
X173208Y19748D01*
Y20864D01*
X172650Y21421D01*
X170420D01*
X169862Y20864D01*
Y19748D01*
X170420Y19191D01*
X170978D01*
X171535Y19748D01*
Y21421D01*
X190041Y14730D02*
X189483Y14173D01*
Y13058D01*
X190041Y12500D01*
X192271D01*
X192828Y13058D01*
Y14173D01*
X192271Y14730D01*
X189483Y18076D02*
Y15845D01*
X191156D01*
X190598Y16961D01*
Y17518D01*
X191156Y18076D01*
X192271D01*
X192828Y17518D01*
Y16403D01*
X192271Y15845D01*
X190041Y19191D02*
X189483Y19748D01*
Y20864D01*
X190041Y21421D01*
X190598D01*
X191156Y20864D01*
X191713Y21421D01*
X192271D01*
X192828Y20864D01*
Y19748D01*
X192271Y19191D01*
X191713D01*
X191156Y19748D01*
X190598Y19191D01*
X190041D01*
X191156Y19748D02*
Y20864D01*
X176960Y14730D02*
X176403Y14173D01*
Y13058D01*
X176960Y12500D01*
X179191D01*
X179748Y13058D01*
Y14173D01*
X179191Y14730D01*
X176403Y18076D02*
X176960Y16961D01*
X178075Y15845D01*
X179191D01*
X179748Y16403D01*
Y17518D01*
X179191Y18076D01*
X178633D01*
X178075Y17518D01*
Y15845D01*
X176960Y19191D02*
X176403Y19748D01*
Y20864D01*
X176960Y21421D01*
X179191D01*
X179748Y20864D01*
Y19748D01*
X179191Y19191D01*
X176960D01*
X111644Y41038D02*
X111087Y40481D01*
Y39365D01*
X111644Y38808D01*
X113875D01*
X114432Y39365D01*
Y40481D01*
X113875Y41038D01*
X111087Y44383D02*
X111644Y43268D01*
X112760Y42153D01*
X113875D01*
X114432Y42711D01*
Y43826D01*
X113875Y44383D01*
X113317D01*
X112760Y43826D01*
Y42153D01*
X114432Y47729D02*
Y45499D01*
X112202Y47729D01*
X111644D01*
X111087Y47171D01*
Y46056D01*
X111644Y45499D01*
X92024Y41038D02*
X91466Y40481D01*
Y39365D01*
X92024Y38808D01*
X94254D01*
X94812Y39365D01*
Y40481D01*
X94254Y41038D01*
X91466Y44383D02*
X92024Y43268D01*
X93139Y42153D01*
X94254D01*
X94812Y42711D01*
Y43826D01*
X94254Y44383D01*
X93697D01*
X93139Y43826D01*
Y42153D01*
X94812Y45499D02*
Y46614D01*
Y46056D01*
X91466D01*
X92024Y45499D01*
X98564Y41038D02*
X98007Y40481D01*
Y39365D01*
X98564Y38808D01*
X100794D01*
X101352Y39365D01*
Y40481D01*
X100794Y41038D01*
X98007Y44383D02*
X98564Y43268D01*
X99679Y42153D01*
X100794D01*
X101352Y42711D01*
Y43826D01*
X100794Y44383D01*
X100237D01*
X99679Y43826D01*
Y42153D01*
X101352Y47171D02*
X98007D01*
X99679Y45499D01*
Y47729D01*
X118185Y41038D02*
X117627Y40481D01*
Y39365D01*
X118185Y38808D01*
X120415D01*
X120973Y39365D01*
Y40481D01*
X120415Y41038D01*
X117627Y44383D02*
X118185Y43268D01*
X119300Y42153D01*
X120415D01*
X120973Y42711D01*
Y43826D01*
X120415Y44383D01*
X119857D01*
X119300Y43826D01*
Y42153D01*
X118185Y45499D02*
X117627Y46056D01*
Y47171D01*
X118185Y47729D01*
X118742D01*
X119300Y47171D01*
Y46614D01*
Y47171D01*
X119857Y47729D01*
X120415D01*
X120973Y47171D01*
Y46056D01*
X120415Y45499D01*
X105104Y41038D02*
X104547Y40481D01*
Y39365D01*
X105104Y38808D01*
X107335D01*
X107892Y39365D01*
Y40481D01*
X107335Y41038D01*
X104547Y44383D02*
X105104Y43268D01*
X106219Y42153D01*
X107335D01*
X107892Y42711D01*
Y43826D01*
X107335Y44383D01*
X106777D01*
X106219Y43826D01*
Y42153D01*
X104547Y47729D02*
Y45499D01*
X106219D01*
X105662Y46614D01*
Y47171D01*
X106219Y47729D01*
X107335D01*
X107892Y47171D01*
Y46056D01*
X107335Y45499D01*
X131179Y14730D02*
X130622Y14173D01*
Y13058D01*
X131179Y12500D01*
X133409D01*
X133967Y13058D01*
Y14173D01*
X133409Y14730D01*
X130622Y18076D02*
X131179Y16961D01*
X132294Y15845D01*
X133409D01*
X133967Y16403D01*
Y17518D01*
X133409Y18076D01*
X132852D01*
X132294Y17518D01*
Y15845D01*
X130622Y19191D02*
Y21421D01*
X131179D01*
X133409Y19191D01*
X133967D01*
X124639Y14730D02*
X124081Y14173D01*
Y13058D01*
X124639Y12500D01*
X126869D01*
X127427Y13058D01*
Y14173D01*
X126869Y14730D01*
X124081Y18076D02*
X124639Y16961D01*
X125754Y15845D01*
X126869D01*
X127427Y16403D01*
Y17518D01*
X126869Y18076D01*
X126312D01*
X125754Y17518D01*
Y15845D01*
X124081Y21421D02*
X124639Y20306D01*
X125754Y19191D01*
X126869D01*
X127427Y19748D01*
Y20864D01*
X126869Y21421D01*
X126312D01*
X125754Y20864D01*
Y19191D01*
X118099Y14730D02*
X117541Y14173D01*
Y13058D01*
X118099Y12500D01*
X120329D01*
X120887Y13058D01*
Y14173D01*
X120329Y14730D01*
X117541Y18076D02*
X118099Y16961D01*
X119214Y15845D01*
X120329D01*
X120887Y16403D01*
Y17518D01*
X120329Y18076D01*
X119772D01*
X119214Y17518D01*
Y15845D01*
X120329Y19191D02*
X120887Y19748D01*
Y20864D01*
X120329Y21421D01*
X118099D01*
X117541Y20864D01*
Y19748D01*
X118099Y19191D01*
X118656D01*
X119214Y19748D01*
Y21421D01*
X111559Y14730D02*
X111001Y14173D01*
Y13058D01*
X111559Y12500D01*
X113789D01*
X114346Y13058D01*
Y14173D01*
X113789Y14730D01*
X111001Y18076D02*
X111559Y16961D01*
X112674Y15845D01*
X113789D01*
X114346Y16403D01*
Y17518D01*
X113789Y18076D01*
X113231D01*
X112674Y17518D01*
Y15845D01*
X111559Y19191D02*
X111001Y19748D01*
Y20864D01*
X111559Y21421D01*
X112116D01*
X112674Y20864D01*
X113231Y21421D01*
X113789D01*
X114346Y20864D01*
Y19748D01*
X113789Y19191D01*
X113231D01*
X112674Y19748D01*
X112116Y19191D01*
X111559D01*
X112674Y19748D02*
Y20864D01*
X157340Y14730D02*
X156782Y14173D01*
Y13058D01*
X157340Y12500D01*
X159570D01*
X160128Y13058D01*
Y14173D01*
X159570Y14730D01*
X156782Y15845D02*
Y18076D01*
X157340D01*
X159570Y15845D01*
X160128D01*
Y19191D02*
Y20306D01*
Y19748D01*
X156782D01*
X157340Y19191D01*
X137719Y14730D02*
X137162Y14173D01*
Y13058D01*
X137719Y12500D01*
X139950D01*
X140507Y13058D01*
Y14173D01*
X139950Y14730D01*
X137162Y15845D02*
Y18076D01*
X137719D01*
X139950Y15845D01*
X140507D01*
X137719Y19191D02*
X137162Y19748D01*
Y20864D01*
X137719Y21421D01*
X139950D01*
X140507Y20864D01*
Y19748D01*
X139950Y19191D01*
X137719D01*
X144259Y14730D02*
X143702Y14173D01*
Y13058D01*
X144259Y12500D01*
X146490D01*
X147047Y13058D01*
Y14173D01*
X146490Y14730D01*
X143702Y15845D02*
Y18076D01*
X144259D01*
X146490Y15845D01*
X147047D01*
X144259Y19191D02*
X143702Y19748D01*
Y20864D01*
X144259Y21421D01*
X144817D01*
X145375Y20864D01*
Y20306D01*
Y20864D01*
X145932Y21421D01*
X146490D01*
X147047Y20864D01*
Y19748D01*
X146490Y19191D01*
X163880Y14730D02*
X163322Y14173D01*
Y13058D01*
X163880Y12500D01*
X166110D01*
X166668Y13058D01*
Y14173D01*
X166110Y14730D01*
X163322Y15845D02*
Y18076D01*
X163880D01*
X166110Y15845D01*
X166668D01*
Y21421D02*
Y19191D01*
X164437Y21421D01*
X163880D01*
X163322Y20864D01*
Y19748D01*
X163880Y19191D01*
X150800Y14730D02*
X150242Y14173D01*
Y13058D01*
X150800Y12500D01*
X153030D01*
X153587Y13058D01*
Y14173D01*
X153030Y14730D01*
X150242Y15845D02*
Y18076D01*
X150800D01*
X153030Y15845D01*
X153587D01*
Y20864D02*
X150242D01*
X151915Y19191D01*
Y21421D01*
X78858Y14730D02*
X78300Y14173D01*
Y13058D01*
X78858Y12500D01*
X81088D01*
X81646Y13058D01*
Y14173D01*
X81088Y14730D01*
X81646Y17518D02*
X78300D01*
X79973Y15845D01*
Y18076D01*
X78300Y21421D02*
Y19191D01*
X79973D01*
X79415Y20306D01*
Y20864D01*
X79973Y21421D01*
X81088D01*
X81646Y20864D01*
Y19748D01*
X81088Y19191D01*
X98478Y14730D02*
X97921Y14173D01*
Y13058D01*
X98478Y12500D01*
X100709D01*
X101266Y13058D01*
Y14173D01*
X100709Y14730D01*
X101266Y17518D02*
X97921D01*
X99593Y15845D01*
Y18076D01*
X101266Y20864D02*
X97921D01*
X99593Y19191D01*
Y21421D01*
X91938Y14730D02*
X91381Y14173D01*
Y13058D01*
X91938Y12500D01*
X94168D01*
X94726Y13058D01*
Y14173D01*
X94168Y14730D01*
X94726Y17518D02*
X91381D01*
X93053Y15845D01*
Y18076D01*
X91938Y19191D02*
X91381Y19748D01*
Y20864D01*
X91938Y21421D01*
X92496D01*
X93053Y20864D01*
Y20306D01*
Y20864D01*
X93611Y21421D01*
X94168D01*
X94726Y20864D01*
Y19748D01*
X94168Y19191D01*
X144112Y108799D02*
X143555Y108241D01*
Y107126D01*
X144112Y106569D01*
X146343D01*
X146900Y107126D01*
Y108241D01*
X146343Y108799D01*
X146900Y111587D02*
X143555D01*
X145227Y109914D01*
Y112144D01*
X144112Y113259D02*
X143555Y113817D01*
Y114932D01*
X144112Y115489D01*
X144670D01*
X145227Y114932D01*
X145785Y115489D01*
X146343D01*
X146900Y114932D01*
Y113817D01*
X146343Y113259D01*
X145785D01*
X145227Y113817D01*
X144670Y113259D01*
X144112D01*
X145227Y113817D02*
Y114932D01*
X137572Y108799D02*
X137014Y108241D01*
Y107126D01*
X137572Y106569D01*
X139802D01*
X140360Y107126D01*
Y108241D01*
X139802Y108799D01*
X140360Y111587D02*
X137014D01*
X138687Y109914D01*
Y112144D01*
X137014Y113259D02*
Y115489D01*
X137572D01*
X139802Y113259D01*
X140360D01*
X85398Y14730D02*
X84840Y14173D01*
Y13058D01*
X85398Y12500D01*
X87628D01*
X88186Y13058D01*
Y14173D01*
X87628Y14730D01*
X88186Y17518D02*
X84840D01*
X86513Y15845D01*
Y18076D01*
X84840Y21421D02*
X85398Y20306D01*
X86513Y19191D01*
X87628D01*
X88186Y19748D01*
Y20864D01*
X87628Y21421D01*
X87071D01*
X86513Y20864D01*
Y19191D01*
X137805Y41038D02*
X137248Y40481D01*
Y39365D01*
X137805Y38808D01*
X140035D01*
X140593Y39365D01*
Y40481D01*
X140035Y41038D01*
X140593Y42153D02*
Y43268D01*
Y42711D01*
X137248D01*
X137805Y42153D01*
Y44941D02*
X137248Y45499D01*
Y46614D01*
X137805Y47171D01*
X138363D01*
X138920Y46614D01*
X139478Y47171D01*
X140035D01*
X140593Y46614D01*
Y45499D01*
X140035Y44941D01*
X139478D01*
X138920Y45499D01*
X138363Y44941D01*
X137805D01*
X138920Y45499D02*
Y46614D01*
X163966Y41038D02*
X163408Y40481D01*
Y39365D01*
X163966Y38808D01*
X166196D01*
X166754Y39365D01*
Y40481D01*
X166196Y41038D01*
X166754Y44383D02*
Y42153D01*
X164523Y44383D01*
X163966D01*
X163408Y43826D01*
Y42711D01*
X163966Y42153D01*
Y45499D02*
X163408Y46056D01*
Y47171D01*
X163966Y47729D01*
X166196D01*
X166754Y47171D01*
Y46056D01*
X166196Y45499D01*
X163966D01*
X131265Y41038D02*
X130707Y40481D01*
Y39365D01*
X131265Y38808D01*
X133495D01*
X134053Y39365D01*
Y40481D01*
X133495Y41038D01*
X134053Y42153D02*
Y43268D01*
Y42711D01*
X130707D01*
X131265Y42153D01*
X133495Y44941D02*
X134053Y45499D01*
Y46614D01*
X133495Y47171D01*
X131265D01*
X130707Y46614D01*
Y45499D01*
X131265Y44941D01*
X131823D01*
X132380Y45499D01*
Y47171D01*
X157426Y41038D02*
X156868Y40481D01*
Y39365D01*
X157426Y38808D01*
X159656D01*
X160213Y39365D01*
Y40481D01*
X159656Y41038D01*
X160213Y44383D02*
Y42153D01*
X157983Y44383D01*
X157426D01*
X156868Y43826D01*
Y42711D01*
X157426Y42153D01*
X160213Y45499D02*
Y46614D01*
Y46056D01*
X156868D01*
X157426Y45499D01*
X324803Y30117D02*
X327033Y26772D01*
Y30117D02*
X324803Y26772D01*
X328149D02*
X329264D01*
X328706D01*
Y30117D01*
X328149Y29559D01*
X150885Y41038D02*
X150328Y40481D01*
Y39365D01*
X150885Y38808D01*
X153116D01*
X153673Y39365D01*
Y40481D01*
X153116Y41038D01*
X153673Y44383D02*
Y42153D01*
X151443Y44383D01*
X150885D01*
X150328Y43826D01*
Y42711D01*
X150885Y42153D01*
X153673Y47729D02*
Y45499D01*
X151443Y47729D01*
X150885D01*
X150328Y47171D01*
Y46056D01*
X150885Y45499D01*
X116878Y96156D02*
X116320Y95599D01*
Y94484D01*
X116878Y93926D01*
X119108D01*
X119666Y94484D01*
Y95599D01*
X119108Y96156D01*
X119666Y99502D02*
Y97271D01*
X117435Y99502D01*
X116878D01*
X116320Y98944D01*
Y97829D01*
X116878Y97271D01*
Y100617D02*
X116320Y101174D01*
Y102289D01*
X116878Y102847D01*
X117435D01*
X117993Y102289D01*
Y101732D01*
Y102289D01*
X118550Y102847D01*
X119108D01*
X119666Y102289D01*
Y101174D01*
X119108Y100617D01*
X124725Y41038D02*
X124167Y40481D01*
Y39365D01*
X124725Y38808D01*
X126955D01*
X127513Y39365D01*
Y40481D01*
X126955Y41038D01*
X124725Y42153D02*
X124167Y42711D01*
Y43826D01*
X124725Y44383D01*
X125282D01*
X125840Y43826D01*
Y43268D01*
Y43826D01*
X126398Y44383D01*
X126955D01*
X127513Y43826D01*
Y42711D01*
X126955Y42153D01*
X124167Y45499D02*
Y47729D01*
X124725D01*
X126955Y45499D01*
X127513D01*
X143038Y96156D02*
X142481Y95599D01*
Y94484D01*
X143038Y93926D01*
X145268D01*
X145826Y94484D01*
Y95599D01*
X145268Y96156D01*
X143038Y97271D02*
X142481Y97829D01*
Y98944D01*
X143038Y99502D01*
X143596D01*
X144153Y98944D01*
Y98387D01*
Y98944D01*
X144711Y99502D01*
X145268D01*
X145826Y98944D01*
Y97829D01*
X145268Y97271D01*
X142481Y102847D02*
X143038Y101732D01*
X144153Y100617D01*
X145268D01*
X145826Y101174D01*
Y102289D01*
X145268Y102847D01*
X144711D01*
X144153Y102289D01*
Y100617D01*
X149578Y96156D02*
X149021Y95599D01*
Y94484D01*
X149578Y93926D01*
X151809D01*
X152366Y94484D01*
Y95599D01*
X151809Y96156D01*
X149578Y97271D02*
X149021Y97829D01*
Y98944D01*
X149578Y99502D01*
X150136D01*
X150694Y98944D01*
Y98387D01*
Y98944D01*
X151251Y99502D01*
X151809D01*
X152366Y98944D01*
Y97829D01*
X151809Y97271D01*
X149021Y102847D02*
Y100617D01*
X150694D01*
X150136Y101732D01*
Y102289D01*
X150694Y102847D01*
X151809D01*
X152366Y102289D01*
Y101174D01*
X151809Y100617D01*
X156119Y96156D02*
X155561Y95599D01*
Y94484D01*
X156119Y93926D01*
X158349D01*
X158906Y94484D01*
Y95599D01*
X158349Y96156D01*
X156119Y97271D02*
X155561Y97829D01*
Y98944D01*
X156119Y99502D01*
X156676D01*
X157234Y98944D01*
Y98387D01*
Y98944D01*
X157791Y99502D01*
X158349D01*
X158906Y98944D01*
Y97829D01*
X158349Y97271D01*
X158906Y102289D02*
X155561D01*
X157234Y100617D01*
Y102847D01*
X123418Y96156D02*
X122860Y95599D01*
Y94484D01*
X123418Y93926D01*
X125648D01*
X126206Y94484D01*
Y95599D01*
X125648Y96156D01*
X123418Y97271D02*
X122860Y97829D01*
Y98944D01*
X123418Y99502D01*
X123975D01*
X124533Y98944D01*
Y98387D01*
Y98944D01*
X125091Y99502D01*
X125648D01*
X126206Y98944D01*
Y97829D01*
X125648Y97271D01*
X123418Y100617D02*
X122860Y101174D01*
Y102289D01*
X123418Y102847D01*
X123975D01*
X124533Y102289D01*
Y101732D01*
Y102289D01*
X125091Y102847D01*
X125648D01*
X126206Y102289D01*
Y101174D01*
X125648Y100617D01*
X129958Y96156D02*
X129400Y95599D01*
Y94484D01*
X129958Y93926D01*
X132188D01*
X132746Y94484D01*
Y95599D01*
X132188Y96156D01*
X129958Y97271D02*
X129400Y97829D01*
Y98944D01*
X129958Y99502D01*
X130516D01*
X131073Y98944D01*
Y98387D01*
Y98944D01*
X131631Y99502D01*
X132188D01*
X132746Y98944D01*
Y97829D01*
X132188Y97271D01*
X132746Y102847D02*
Y100617D01*
X130516Y102847D01*
X129958D01*
X129400Y102289D01*
Y101174D01*
X129958Y100617D01*
X136498Y96156D02*
X135941Y95599D01*
Y94484D01*
X136498Y93926D01*
X138728D01*
X139286Y94484D01*
Y95599D01*
X138728Y96156D01*
X136498Y97271D02*
X135941Y97829D01*
Y98944D01*
X136498Y99502D01*
X137056D01*
X137613Y98944D01*
Y98387D01*
Y98944D01*
X138171Y99502D01*
X138728D01*
X139286Y98944D01*
Y97829D01*
X138728Y97271D01*
X139286Y100617D02*
Y101732D01*
Y101174D01*
X135941D01*
X136498Y100617D01*
X125260Y88008D02*
X124702Y88566D01*
X123587D01*
X123029Y88008D01*
Y85778D01*
X123587Y85220D01*
X124702D01*
X125260Y85778D01*
X126375Y85220D02*
X127490D01*
X126932D01*
Y88566D01*
X126375Y88008D01*
X137705D02*
X137148Y88566D01*
X136033D01*
X135475Y88008D01*
Y85778D01*
X136033Y85220D01*
X137148D01*
X137705Y85778D01*
X141051Y85220D02*
X138821D01*
X141051Y87451D01*
Y88008D01*
X140493Y88566D01*
X139378D01*
X138821Y88008D01*
X100368D02*
X99811Y88566D01*
X98696D01*
X98138Y88008D01*
Y85778D01*
X98696Y85220D01*
X99811D01*
X100368Y85778D01*
X101484Y88008D02*
X102041Y88566D01*
X103156D01*
X103714Y88008D01*
Y87451D01*
X103156Y86893D01*
X102599D01*
X103156D01*
X103714Y86336D01*
Y85778D01*
X103156Y85220D01*
X102041D01*
X101484Y85778D01*
X112814Y88008D02*
X112257Y88566D01*
X111141D01*
X110584Y88008D01*
Y85778D01*
X111141Y85220D01*
X112257D01*
X112814Y85778D01*
X115602Y85220D02*
Y88566D01*
X113929Y86893D01*
X116159D01*
X150151Y88008D02*
X149593Y88566D01*
X148478D01*
X147921Y88008D01*
Y85778D01*
X148478Y85220D01*
X149593D01*
X150151Y85778D01*
X151266Y88566D02*
X153496D01*
Y88008D01*
X151266Y85778D01*
Y85220D01*
X90717Y96156D02*
X90159Y95599D01*
Y94484D01*
X90717Y93926D01*
X92947D01*
X93505Y94484D01*
Y95599D01*
X92947Y96156D01*
X93505Y97271D02*
Y98387D01*
Y97829D01*
X90159D01*
X90717Y97271D01*
Y100059D02*
X90159Y100617D01*
Y101732D01*
X90717Y102289D01*
X92947D01*
X93505Y101732D01*
Y100617D01*
X92947Y100059D01*
X90717D01*
X84177Y96156D02*
X83619Y95599D01*
Y94484D01*
X84177Y93926D01*
X86407D01*
X86965Y94484D01*
Y95599D01*
X86407Y96156D01*
X86965Y97271D02*
Y98387D01*
Y97829D01*
X83619D01*
X84177Y97271D01*
X86965Y100059D02*
Y101174D01*
Y100617D01*
X83619D01*
X84177Y100059D01*
X177046Y41038D02*
X176488Y40481D01*
Y39365D01*
X177046Y38808D01*
X179276D01*
X179834Y39365D01*
Y40481D01*
X179276Y41038D01*
X179834Y42153D02*
Y43268D01*
Y42711D01*
X176488D01*
X177046Y42153D01*
X179834Y47171D02*
Y44941D01*
X177604Y47171D01*
X177046D01*
X176488Y46614D01*
Y45499D01*
X177046Y44941D01*
X110337Y96156D02*
X109780Y95599D01*
Y94484D01*
X110337Y93926D01*
X112568D01*
X113125Y94484D01*
Y95599D01*
X112568Y96156D01*
X113125Y97271D02*
Y98387D01*
Y97829D01*
X109780D01*
X110337Y97271D01*
Y100059D02*
X109780Y100617D01*
Y101732D01*
X110337Y102289D01*
X110895D01*
X111453Y101732D01*
Y101174D01*
Y101732D01*
X112010Y102289D01*
X112568D01*
X113125Y101732D01*
Y100617D01*
X112568Y100059D01*
X97257Y96156D02*
X96700Y95599D01*
Y94484D01*
X97257Y93926D01*
X99487D01*
X100045Y94484D01*
Y95599D01*
X99487Y96156D01*
X100045Y97271D02*
Y98387D01*
Y97829D01*
X96700D01*
X97257Y97271D01*
X96700Y102289D02*
Y100059D01*
X98372D01*
X97815Y101174D01*
Y101732D01*
X98372Y102289D01*
X99487D01*
X100045Y101732D01*
Y100617D01*
X99487Y100059D01*
X103797Y96156D02*
X103240Y95599D01*
Y94484D01*
X103797Y93926D01*
X106028D01*
X106585Y94484D01*
Y95599D01*
X106028Y96156D01*
X106585Y97271D02*
Y98387D01*
Y97829D01*
X103240D01*
X103797Y97271D01*
X106585Y101732D02*
X103240D01*
X104912Y100059D01*
Y102289D01*
X170506Y41038D02*
X169948Y40481D01*
Y39365D01*
X170506Y38808D01*
X172736D01*
X173294Y39365D01*
Y40481D01*
X172736Y41038D01*
X173294Y42153D02*
Y43268D01*
Y42711D01*
X169948D01*
X170506Y42153D01*
X169948Y47171D02*
X170506Y46056D01*
X171621Y44941D01*
X172736D01*
X173294Y45499D01*
Y46614D01*
X172736Y47171D01*
X172179D01*
X171621Y46614D01*
Y44941D01*
X144345Y41038D02*
X143788Y40481D01*
Y39365D01*
X144345Y38808D01*
X146576D01*
X147133Y39365D01*
Y40481D01*
X146576Y41038D01*
X147133Y42153D02*
Y43268D01*
Y42711D01*
X143788D01*
X144345Y42153D01*
X143788Y44941D02*
Y47171D01*
X144345D01*
X146576Y44941D01*
X147133D01*
X105413Y49777D02*
X102067D01*
Y51450D01*
X102625Y52007D01*
X103740D01*
X104297Y51450D01*
Y49777D01*
Y50892D02*
X105413Y52007D01*
Y54795D02*
X102067D01*
X103740Y53123D01*
Y55353D01*
X102067Y58698D02*
Y56468D01*
X103740D01*
X103182Y57583D01*
Y58141D01*
X103740Y58698D01*
X104855D01*
X105413Y58141D01*
Y57025D01*
X104855Y56468D01*
X247638Y50886D02*
Y54231D01*
X249310D01*
X249868Y53674D01*
Y52558D01*
X249310Y52001D01*
X247638D01*
X250983Y51443D02*
X251541Y50886D01*
X252656D01*
X253213Y51443D01*
Y53674D01*
X252656Y54231D01*
X251541D01*
X250983Y53674D01*
Y53116D01*
X251541Y52558D01*
X253213D01*
X150213Y49777D02*
X146867D01*
Y51450D01*
X147425Y52007D01*
X148540D01*
X149098Y51450D01*
Y49777D01*
Y50892D02*
X150213Y52007D01*
Y54795D02*
X146867D01*
X148540Y53123D01*
Y55353D01*
X146867Y58698D02*
X147425Y57583D01*
X148540Y56468D01*
X149655D01*
X150213Y57025D01*
Y58141D01*
X149655Y58698D01*
X149098D01*
X148540Y58141D01*
Y56468D01*
X255217Y53740D02*
X251871D01*
Y55413D01*
X252429Y55970D01*
X253544D01*
X254101Y55413D01*
Y53740D01*
X255217Y57086D02*
Y58201D01*
Y57643D01*
X251871D01*
X252429Y57086D01*
Y59873D02*
X251871Y60431D01*
Y61546D01*
X252429Y62104D01*
X254659D01*
X255217Y61546D01*
Y60431D01*
X254659Y59873D01*
X252429D01*
X156613Y49777D02*
X153267D01*
Y51450D01*
X153825Y52007D01*
X154940D01*
X155498Y51450D01*
Y49777D01*
Y50892D02*
X156613Y52007D01*
Y54795D02*
X153267D01*
X154940Y53123D01*
Y55353D01*
X153267Y56468D02*
Y58698D01*
X153825D01*
X156055Y56468D01*
X156613D01*
X143813Y49777D02*
X140467D01*
Y51450D01*
X141025Y52007D01*
X142140D01*
X142698Y51450D01*
Y49777D01*
Y50892D02*
X143813Y52007D01*
Y54795D02*
X140467D01*
X142140Y53123D01*
Y55353D01*
X141025Y56468D02*
X140467Y57025D01*
Y58141D01*
X141025Y58698D01*
X141582D01*
X142140Y58141D01*
X142698Y58698D01*
X143255D01*
X143813Y58141D01*
Y57025D01*
X143255Y56468D01*
X142698D01*
X142140Y57025D01*
X141582Y56468D01*
X141025D01*
X142140Y57025D02*
Y58141D01*
X137413Y49777D02*
X134067D01*
Y51450D01*
X134625Y52007D01*
X135740D01*
X136298Y51450D01*
Y49777D01*
Y50892D02*
X137413Y52007D01*
X134067Y55353D02*
Y53123D01*
X135740D01*
X135182Y54238D01*
Y54795D01*
X135740Y55353D01*
X136855D01*
X137413Y54795D01*
Y53680D01*
X136855Y53123D01*
X134625Y56468D02*
X134067Y57025D01*
Y58141D01*
X134625Y58698D01*
X136855D01*
X137413Y58141D01*
Y57025D01*
X136855Y56468D01*
X134625D01*
X131013Y49777D02*
X127667D01*
Y51450D01*
X128225Y52007D01*
X129340D01*
X129897Y51450D01*
Y49777D01*
Y50892D02*
X131013Y52007D01*
Y54795D02*
X127667D01*
X129340Y53123D01*
Y55353D01*
X130455Y56468D02*
X131013Y57025D01*
Y58141D01*
X130455Y58698D01*
X128225D01*
X127667Y58141D01*
Y57025D01*
X128225Y56468D01*
X128782D01*
X129340Y57025D01*
Y58698D01*
X251575Y66634D02*
Y69979D01*
X253247D01*
X253805Y69422D01*
Y68306D01*
X253247Y67749D01*
X251575D01*
X254920Y66634D02*
X256035D01*
X255478D01*
Y69979D01*
X254920Y69422D01*
X257708Y66634D02*
X258823D01*
X258266D01*
Y69979D01*
X257708Y69422D01*
X252264Y82284D02*
X248918D01*
Y83956D01*
X249476Y84514D01*
X250591D01*
X251149Y83956D01*
Y82284D01*
X252264Y85629D02*
Y86744D01*
Y86186D01*
X248918D01*
X249476Y85629D01*
X252264Y90647D02*
Y88417D01*
X250033Y90647D01*
X249476D01*
X248918Y90089D01*
Y88974D01*
X249476Y88417D01*
X177969Y23469D02*
X174624D01*
Y25142D01*
X175181Y25699D01*
X176297D01*
X176854Y25142D01*
Y23469D01*
Y24584D02*
X177969Y25699D01*
Y29045D02*
Y26815D01*
X175739Y29045D01*
X175181D01*
X174624Y28487D01*
Y27372D01*
X175181Y26815D01*
Y30160D02*
X174624Y30718D01*
Y31833D01*
X175181Y32390D01*
X177412D01*
X177969Y31833D01*
Y30718D01*
X177412Y30160D01*
X175181D01*
X171569Y23469D02*
X168224D01*
Y25142D01*
X168781Y25699D01*
X169897D01*
X170454Y25142D01*
Y23469D01*
Y24584D02*
X171569Y25699D01*
Y26815D02*
Y27930D01*
Y27372D01*
X168224D01*
X168781Y26815D01*
X171012Y29603D02*
X171569Y30160D01*
Y31275D01*
X171012Y31833D01*
X168781D01*
X168224Y31275D01*
Y30160D01*
X168781Y29603D01*
X169339D01*
X169897Y30160D01*
Y31833D01*
X101169Y23469D02*
X97824D01*
Y25142D01*
X98381Y25699D01*
X99497D01*
X100054Y25142D01*
Y23469D01*
Y24584D02*
X101169Y25699D01*
Y29045D02*
Y26815D01*
X98939Y29045D01*
X98381D01*
X97824Y28487D01*
Y27372D01*
X98381Y26815D01*
X101169Y32390D02*
Y30160D01*
X98939Y32390D01*
X98381D01*
X97824Y31833D01*
Y30718D01*
X98381Y30160D01*
X94769Y23469D02*
X91424D01*
Y25142D01*
X91981Y25699D01*
X93097D01*
X93654Y25142D01*
Y23469D01*
Y24584D02*
X94769Y25699D01*
Y29045D02*
Y26815D01*
X92539Y29045D01*
X91981D01*
X91424Y28487D01*
Y27372D01*
X91981Y26815D01*
X94769Y30160D02*
Y31275D01*
Y30718D01*
X91424D01*
X91981Y30160D01*
X88369Y23469D02*
X85024D01*
Y25142D01*
X85581Y25699D01*
X86697D01*
X87254Y25142D01*
Y23469D01*
Y24584D02*
X88369Y25699D01*
Y29045D02*
Y26815D01*
X86139Y29045D01*
X85581D01*
X85024Y28487D01*
Y27372D01*
X85581Y26815D01*
Y30160D02*
X85024Y30718D01*
Y31833D01*
X85581Y32390D01*
X86139D01*
X86697Y31833D01*
Y31275D01*
Y31833D01*
X87254Y32390D01*
X87812D01*
X88369Y31833D01*
Y30718D01*
X87812Y30160D01*
X81969Y23469D02*
X78624D01*
Y25142D01*
X79181Y25700D01*
X80296D01*
X80854Y25142D01*
Y23469D01*
Y24585D02*
X81969Y25700D01*
Y29045D02*
Y26815D01*
X79739Y29045D01*
X79181D01*
X78624Y28487D01*
Y27372D01*
X79181Y26815D01*
X78624Y32390D02*
Y30160D01*
X80296D01*
X79739Y31275D01*
Y31833D01*
X80296Y32390D01*
X81412D01*
X81969Y31833D01*
Y30718D01*
X81412Y30160D01*
X126769Y23469D02*
X123424D01*
Y25142D01*
X123981Y25699D01*
X125097D01*
X125654Y25142D01*
Y23469D01*
Y24584D02*
X126769Y25699D01*
Y29045D02*
Y26815D01*
X124539Y29045D01*
X123981D01*
X123424Y28487D01*
Y27372D01*
X123981Y26815D01*
X123424Y32390D02*
X123981Y31275D01*
X125097Y30160D01*
X126212D01*
X126769Y30718D01*
Y31833D01*
X126212Y32390D01*
X125654D01*
X125097Y31833D01*
Y30160D01*
X133169Y23469D02*
X129824D01*
Y25142D01*
X130381Y25699D01*
X131497D01*
X132054Y25142D01*
Y23469D01*
Y24584D02*
X133169Y25699D01*
Y29045D02*
Y26815D01*
X130939Y29045D01*
X130381D01*
X129824Y28487D01*
Y27372D01*
X130381Y26815D01*
X129824Y30160D02*
Y32390D01*
X130381D01*
X132612Y30160D01*
X133169D01*
X120369Y23469D02*
X117024D01*
Y25142D01*
X117581Y25699D01*
X118697D01*
X119254Y25142D01*
Y23469D01*
Y24584D02*
X120369Y25699D01*
Y29045D02*
Y26815D01*
X118139Y29045D01*
X117581D01*
X117024Y28487D01*
Y27372D01*
X117581Y26815D01*
Y30160D02*
X117024Y30718D01*
Y31833D01*
X117581Y32390D01*
X118139D01*
X118697Y31833D01*
X119254Y32390D01*
X119812D01*
X120369Y31833D01*
Y30718D01*
X119812Y30160D01*
X119254D01*
X118697Y30718D01*
X118139Y30160D01*
X117581D01*
X118697Y30718D02*
Y31833D01*
X107569Y23469D02*
X104224D01*
Y25142D01*
X104781Y25699D01*
X105897D01*
X106454Y25142D01*
Y23469D01*
Y24584D02*
X107569Y25699D01*
Y29045D02*
Y26815D01*
X105339Y29045D01*
X104781D01*
X104224Y28487D01*
Y27372D01*
X104781Y26815D01*
X107012Y30160D02*
X107569Y30718D01*
Y31833D01*
X107012Y32390D01*
X104781D01*
X104224Y31833D01*
Y30718D01*
X104781Y30160D01*
X105339D01*
X105897Y30718D01*
Y32390D01*
X182213Y49777D02*
X178867D01*
Y51450D01*
X179425Y52007D01*
X180540D01*
X181097Y51450D01*
Y49777D01*
Y50892D02*
X182213Y52007D01*
X179425Y53123D02*
X178867Y53680D01*
Y54795D01*
X179425Y55353D01*
X179982D01*
X180540Y54795D01*
Y54238D01*
Y54795D01*
X181097Y55353D01*
X181655D01*
X182213Y54795D01*
Y53680D01*
X181655Y53123D01*
X182213Y56468D02*
Y57583D01*
Y57025D01*
X178867D01*
X179425Y56468D01*
X113969Y23469D02*
X110624D01*
Y25142D01*
X111181Y25699D01*
X112297D01*
X112854Y25142D01*
Y23469D01*
Y24584D02*
X113969Y25699D01*
X111181Y26815D02*
X110624Y27372D01*
Y28487D01*
X111181Y29045D01*
X111739D01*
X112297Y28487D01*
Y27930D01*
Y28487D01*
X112854Y29045D01*
X113412D01*
X113969Y28487D01*
Y27372D01*
X113412Y26815D01*
X111181Y30160D02*
X110624Y30718D01*
Y31833D01*
X111181Y32390D01*
X113412D01*
X113969Y31833D01*
Y30718D01*
X113412Y30160D01*
X111181D01*
X89203Y104895D02*
X85858D01*
Y106568D01*
X86415Y107125D01*
X87530D01*
X88088Y106568D01*
Y104895D01*
Y106010D02*
X89203Y107125D01*
X86415Y108241D02*
X85858Y108798D01*
Y109913D01*
X86415Y110471D01*
X86973D01*
X87530Y109913D01*
Y109356D01*
Y109913D01*
X88088Y110471D01*
X88646D01*
X89203Y109913D01*
Y108798D01*
X88646Y108241D01*
X89203Y113816D02*
Y111586D01*
X86973Y113816D01*
X86415D01*
X85858Y113259D01*
Y112144D01*
X86415Y111586D01*
X175813Y49777D02*
X172467D01*
Y51450D01*
X173025Y52007D01*
X174140D01*
X174697Y51450D01*
Y49777D01*
Y50892D02*
X175813Y52007D01*
X173025Y53123D02*
X172467Y53680D01*
Y54795D01*
X173025Y55353D01*
X173582D01*
X174140Y54795D01*
Y54238D01*
Y54795D01*
X174697Y55353D01*
X175255D01*
X175813Y54795D01*
Y53680D01*
X175255Y53123D01*
X173025Y56468D02*
X172467Y57025D01*
Y58141D01*
X173025Y58698D01*
X173582D01*
X174140Y58141D01*
Y57583D01*
Y58141D01*
X174697Y58698D01*
X175255D01*
X175813Y58141D01*
Y57025D01*
X175255Y56468D01*
X121203Y104895D02*
X117858D01*
Y106568D01*
X118415Y107125D01*
X119530D01*
X120088Y106568D01*
Y104895D01*
Y106010D02*
X121203Y107125D01*
X118415Y108241D02*
X117858Y108798D01*
Y109913D01*
X118415Y110471D01*
X118973D01*
X119530Y109913D01*
Y109356D01*
Y109913D01*
X120088Y110471D01*
X120646D01*
X121203Y109913D01*
Y108798D01*
X120646Y108241D01*
X117858Y111586D02*
Y113816D01*
X118415D01*
X120646Y111586D01*
X121203D01*
X114803Y104895D02*
X111458D01*
Y106568D01*
X112015Y107125D01*
X113130D01*
X113688Y106568D01*
Y104895D01*
Y106010D02*
X114803Y107125D01*
X112015Y108241D02*
X111458Y108798D01*
Y109913D01*
X112015Y110471D01*
X112573D01*
X113130Y109913D01*
Y109356D01*
Y109913D01*
X113688Y110471D01*
X114246D01*
X114803Y109913D01*
Y108798D01*
X114246Y108241D01*
X111458Y113816D02*
X112015Y112701D01*
X113130Y111586D01*
X114246D01*
X114803Y112144D01*
Y113259D01*
X114246Y113816D01*
X113688D01*
X113130Y113259D01*
Y111586D01*
X169413Y49777D02*
X166067D01*
Y51450D01*
X166625Y52007D01*
X167740D01*
X168298Y51450D01*
Y49777D01*
Y50892D02*
X169413Y52007D01*
X166625Y53123D02*
X166067Y53680D01*
Y54795D01*
X166625Y55353D01*
X167182D01*
X167740Y54795D01*
Y54238D01*
Y54795D01*
X168298Y55353D01*
X168855D01*
X169413Y54795D01*
Y53680D01*
X168855Y53123D01*
X166067Y58698D02*
Y56468D01*
X167740D01*
X167182Y57583D01*
Y58141D01*
X167740Y58698D01*
X168855D01*
X169413Y58141D01*
Y57025D01*
X168855Y56468D01*
X163013Y49777D02*
X159667D01*
Y51450D01*
X160225Y52007D01*
X161340D01*
X161898Y51450D01*
Y49777D01*
Y50892D02*
X163013Y52007D01*
X160225Y53123D02*
X159667Y53680D01*
Y54795D01*
X160225Y55353D01*
X160782D01*
X161340Y54795D01*
Y54238D01*
Y54795D01*
X161898Y55353D01*
X162455D01*
X163013Y54795D01*
Y53680D01*
X162455Y53123D01*
X163013Y58141D02*
X159667D01*
X161340Y56468D01*
Y58698D01*
X108403Y104895D02*
X105058D01*
Y106568D01*
X105615Y107125D01*
X106730D01*
X107288Y106568D01*
Y104895D01*
Y106010D02*
X108403Y107125D01*
X105615Y108241D02*
X105058Y108798D01*
Y109913D01*
X105615Y110471D01*
X106173D01*
X106730Y109913D01*
Y109356D01*
Y109913D01*
X107288Y110471D01*
X107846D01*
X108403Y109913D01*
Y108798D01*
X107846Y108241D01*
X105615Y111586D02*
X105058Y112144D01*
Y113259D01*
X105615Y113816D01*
X106173D01*
X106730Y113259D01*
X107288Y113816D01*
X107846D01*
X108403Y113259D01*
Y112144D01*
X107846Y111586D01*
X107288D01*
X106730Y112144D01*
X106173Y111586D01*
X105615D01*
X106730Y112144D02*
Y113259D01*
X95603Y104895D02*
X92258D01*
Y106568D01*
X92815Y107125D01*
X93931D01*
X94488Y106568D01*
Y104895D01*
Y106010D02*
X95603Y107125D01*
X92815Y108241D02*
X92258Y108798D01*
Y109913D01*
X92815Y110471D01*
X93373D01*
X93931Y109913D01*
Y109356D01*
Y109913D01*
X94488Y110471D01*
X95046D01*
X95603Y109913D01*
Y108798D01*
X95046Y108241D01*
Y111586D02*
X95603Y112144D01*
Y113259D01*
X95046Y113816D01*
X92815D01*
X92258Y113259D01*
Y112144D01*
X92815Y111586D01*
X93373D01*
X93931Y112144D01*
Y113816D01*
X111813Y49777D02*
X108467D01*
Y51450D01*
X109025Y52007D01*
X110140D01*
X110697Y51450D01*
Y49777D01*
Y50892D02*
X111813Y52007D01*
Y54795D02*
X108467D01*
X110140Y53123D01*
Y55353D01*
X109025Y56468D02*
X108467Y57025D01*
Y58141D01*
X109025Y58698D01*
X109582D01*
X110140Y58141D01*
Y57583D01*
Y58141D01*
X110697Y58698D01*
X111255D01*
X111813Y58141D01*
Y57025D01*
X111255Y56468D01*
X124613Y49777D02*
X121267D01*
Y51450D01*
X121825Y52007D01*
X122940D01*
X123497Y51450D01*
Y49777D01*
Y50892D02*
X124613Y52007D01*
Y54795D02*
X121267D01*
X122940Y53123D01*
Y55353D01*
X124613Y58698D02*
Y56468D01*
X122382Y58698D01*
X121825D01*
X121267Y58141D01*
Y57025D01*
X121825Y56468D01*
X118213Y49777D02*
X114867D01*
Y51450D01*
X115425Y52007D01*
X116540D01*
X117097Y51450D01*
Y49777D01*
Y50892D02*
X118213Y52007D01*
Y54795D02*
X114867D01*
X116540Y53123D01*
Y55353D01*
X118213Y56468D02*
Y57583D01*
Y57025D01*
X114867D01*
X115425Y56468D01*
X102003Y104895D02*
X98658D01*
Y106568D01*
X99215Y107125D01*
X100330D01*
X100888Y106568D01*
Y104895D01*
Y106010D02*
X102003Y107125D01*
Y109913D02*
X98658D01*
X100330Y108241D01*
Y110471D01*
X99215Y111586D02*
X98658Y112144D01*
Y113259D01*
X99215Y113816D01*
X101446D01*
X102003Y113259D01*
Y112144D01*
X101446Y111586D01*
X99215D01*
X99013Y49777D02*
X95667D01*
Y51450D01*
X96225Y52007D01*
X97340D01*
X97897Y51450D01*
Y49777D01*
Y50892D02*
X99013Y52007D01*
Y54795D02*
X95667D01*
X97340Y53123D01*
Y55353D01*
X99013Y58141D02*
X95667D01*
X97340Y56468D01*
Y58698D01*
X302756Y22343D02*
Y25688D01*
X304429D01*
X304986Y25130D01*
Y24015D01*
X304429Y23458D01*
X302756D01*
X306101Y22343D02*
X307216D01*
X306659D01*
Y25688D01*
X306101Y25130D01*
X247801Y9448D02*
Y6102D01*
X250031D01*
X251146D02*
X252261D01*
X251704D01*
Y9448D01*
X251146Y8890D01*
X313583Y22343D02*
Y25688D01*
X315255D01*
X315813Y25130D01*
Y24015D01*
X315255Y23458D01*
X313583D01*
X319158Y22343D02*
X316928D01*
X319158Y24573D01*
Y25130D01*
X318601Y25688D01*
X317486D01*
X316928Y25130D01*
X222516Y6102D02*
Y9448D01*
X224188D01*
X224746Y8890D01*
Y7775D01*
X224188Y7218D01*
X222516D01*
X223631D02*
X224746Y6102D01*
X225861D02*
X226976D01*
X226419D01*
Y9448D01*
X225861Y8890D01*
X254528Y43996D02*
Y47341D01*
X256200D01*
X256758Y46784D01*
Y45669D01*
X256200Y45111D01*
X254528D01*
X257873Y46784D02*
X258431Y47341D01*
X259546D01*
X260103Y46784D01*
Y46226D01*
X259546Y45669D01*
X258988D01*
X259546D01*
X260103Y45111D01*
Y44554D01*
X259546Y43996D01*
X258431D01*
X257873Y44554D01*
X228543Y13976D02*
Y17322D01*
X230216D01*
X230773Y16764D01*
Y15649D01*
X230216Y15091D01*
X228543D01*
X229658D02*
X230773Y13976D01*
X231889Y16764D02*
X232446Y17322D01*
X233561D01*
X234119Y16764D01*
Y16207D01*
X233561Y15649D01*
X233004D01*
X233561D01*
X234119Y15091D01*
Y14534D01*
X233561Y13976D01*
X232446D01*
X231889Y14534D01*
X246654Y40059D02*
Y43404D01*
X248326D01*
X248884Y42847D01*
Y41732D01*
X248326Y41174D01*
X246654D01*
X251672Y40059D02*
Y43404D01*
X249999Y41732D01*
X252229D01*
X260443Y6102D02*
Y9448D01*
X262116D01*
X262673Y8890D01*
Y7775D01*
X262116Y7218D01*
X260443D01*
X261558D02*
X262673Y6102D01*
X265461D02*
Y9448D01*
X263789Y7775D01*
X266019D01*
X311013Y6102D02*
Y9448D01*
X312686D01*
X313244Y8890D01*
Y7775D01*
X312686Y7218D01*
X311013D01*
X312128D02*
X313244Y6102D01*
X316589Y9448D02*
X314359D01*
Y7775D01*
X315474Y8333D01*
X316031D01*
X316589Y7775D01*
Y6660D01*
X316031Y6102D01*
X314916D01*
X314359Y6660D01*
X269291Y16437D02*
Y19782D01*
X270964D01*
X271522Y19225D01*
Y18110D01*
X270964Y17552D01*
X269291D01*
X274867Y19782D02*
X272637D01*
Y18110D01*
X273752Y18667D01*
X274309D01*
X274867Y18110D01*
Y16995D01*
X274309Y16437D01*
X273194D01*
X272637Y16995D01*
X323656Y6102D02*
Y9448D01*
X325329D01*
X325886Y8890D01*
Y7775D01*
X325329Y7218D01*
X323656D01*
X324771D02*
X325886Y6102D01*
X329232Y9448D02*
X328116Y8890D01*
X327001Y7775D01*
Y6660D01*
X327559Y6102D01*
X328674D01*
X329232Y6660D01*
Y7218D01*
X328674Y7775D01*
X327001D01*
X286024Y14469D02*
Y17814D01*
X287696D01*
X288254Y17256D01*
Y16141D01*
X287696Y15584D01*
X286024D01*
X291599Y17814D02*
X290484Y17256D01*
X289369Y16141D01*
Y15026D01*
X289927Y14469D01*
X291042D01*
X291599Y15026D01*
Y15584D01*
X291042Y16141D01*
X289369D01*
X252264Y32085D02*
Y28740D01*
X253937D01*
X254494Y29298D01*
Y31528D01*
X253937Y32085D01*
X252264D01*
X255609Y28740D02*
X256724D01*
X256167D01*
Y32085D01*
X255609Y31528D01*
X297047Y15747D02*
Y12402D01*
X298720D01*
X299277Y12959D01*
Y15189D01*
X298720Y15747D01*
X297047D01*
X302623D02*
X300393D01*
Y14074D01*
X301508Y14632D01*
X302065D01*
X302623Y14074D01*
Y12959D01*
X302065Y12402D01*
X300950D01*
X300393Y12959D01*
X278346Y14763D02*
Y11417D01*
X280019D01*
X280577Y11975D01*
Y14205D01*
X280019Y14763D01*
X278346D01*
X283365Y11417D02*
Y14763D01*
X281692Y13090D01*
X283922D01*
X304921Y15747D02*
Y12402D01*
X306594D01*
X307152Y12959D01*
Y15189D01*
X306594Y15747D01*
X304921D01*
X308267Y15189D02*
X308824Y15747D01*
X309939D01*
X310497Y15189D01*
Y14632D01*
X309939Y14074D01*
X309382D01*
X309939D01*
X310497Y13517D01*
Y12959D01*
X309939Y12402D01*
X308824D01*
X308267Y12959D01*
X314764Y15747D02*
Y12402D01*
X316437D01*
X316994Y12959D01*
Y15189D01*
X316437Y15747D01*
X314764D01*
X320339Y12402D02*
X318109D01*
X320339Y14632D01*
Y15189D01*
X319782Y15747D01*
X318667D01*
X318109Y15189D01*
X273086Y6102D02*
Y9448D01*
X274759D01*
X275316Y8890D01*
Y7775D01*
X274759Y7218D01*
X273086D01*
X274201D02*
X275316Y6102D01*
X276431Y8890D02*
X276989Y9448D01*
X278104D01*
X278661Y8890D01*
Y8333D01*
X278104Y7775D01*
X278661Y7218D01*
Y6660D01*
X278104Y6102D01*
X276989D01*
X276431Y6660D01*
Y7218D01*
X276989Y7775D01*
X276431Y8333D01*
Y8890D01*
X276989Y7775D02*
X278104D01*
X298371Y6102D02*
Y9448D01*
X300044D01*
X300601Y8890D01*
Y7775D01*
X300044Y7218D01*
X298371D01*
X299486D02*
X300601Y6102D01*
X301716Y9448D02*
X303946D01*
Y8890D01*
X301716Y6660D01*
Y6102D01*
X248622Y97146D02*
Y100491D01*
X250295D01*
X250852Y99933D01*
Y98818D01*
X250295Y98261D01*
X248622D01*
X251967Y100491D02*
X254198D01*
Y99933D01*
X251967Y97703D01*
Y97146D01*
X285728Y6102D02*
Y9448D01*
X287401D01*
X287959Y8890D01*
Y7775D01*
X287401Y7218D01*
X285728D01*
X286843D02*
X287959Y6102D01*
X289074Y6660D02*
X289631Y6102D01*
X290746D01*
X291304Y6660D01*
Y8890D01*
X290746Y9448D01*
X289631D01*
X289074Y8890D01*
Y8333D01*
X289631Y7775D01*
X291304D01*
X158769Y23469D02*
X155424D01*
Y25142D01*
X155981Y25699D01*
X157097D01*
X157654Y25142D01*
Y23469D01*
Y24584D02*
X158769Y25699D01*
Y26815D02*
Y27930D01*
Y27372D01*
X155424D01*
X155981Y26815D01*
Y29603D02*
X155424Y30160D01*
Y31275D01*
X155981Y31833D01*
X158212D01*
X158769Y31275D01*
Y30160D01*
X158212Y29603D01*
X155981D01*
X265354Y40059D02*
Y43404D01*
X267027D01*
X267585Y42847D01*
Y41732D01*
X267027Y41174D01*
X265354D01*
X268700Y42847D02*
X269257Y43404D01*
X270372D01*
X270930Y42847D01*
Y42289D01*
X270372Y41732D01*
X270930Y41174D01*
Y40617D01*
X270372Y40059D01*
X269257D01*
X268700Y40617D01*
Y41174D01*
X269257Y41732D01*
X268700Y42289D01*
Y42847D01*
X269257Y41732D02*
X270372D01*
X165169Y23469D02*
X161824D01*
Y25142D01*
X162381Y25699D01*
X163497D01*
X164054Y25142D01*
Y23469D01*
Y24584D02*
X165169Y25699D01*
Y26815D02*
Y27930D01*
Y27372D01*
X161824D01*
X162381Y26815D01*
X165169Y31833D02*
Y29603D01*
X162939Y31833D01*
X162381D01*
X161824Y31275D01*
Y30160D01*
X162381Y29603D01*
X139569Y23469D02*
X136224D01*
Y25142D01*
X136781Y25699D01*
X137897D01*
X138454Y25142D01*
Y23469D01*
Y24584D02*
X139569Y25699D01*
Y26815D02*
Y27930D01*
Y27372D01*
X136224D01*
X136781Y26815D01*
X139569Y31275D02*
X136224D01*
X137897Y29603D01*
Y31833D01*
X152369Y23469D02*
X149024D01*
Y25142D01*
X149581Y25699D01*
X150697D01*
X151254Y25142D01*
Y23469D01*
Y24584D02*
X152369Y25699D01*
Y26815D02*
Y27930D01*
Y27372D01*
X149024D01*
X149581Y26815D01*
Y29603D02*
X149024Y30160D01*
Y31275D01*
X149581Y31833D01*
X150139D01*
X150697Y31275D01*
Y30718D01*
Y31275D01*
X151254Y31833D01*
X151812D01*
X152369Y31275D01*
Y30160D01*
X151812Y29603D01*
X145969Y23469D02*
X142624D01*
Y25142D01*
X143181Y25699D01*
X144297D01*
X144854Y25142D01*
Y23469D01*
Y24584D02*
X145969Y25699D01*
Y26815D02*
Y27930D01*
Y27372D01*
X142624D01*
X143181Y26815D01*
X142624Y31833D02*
Y29603D01*
X144297D01*
X143739Y30718D01*
Y31275D01*
X144297Y31833D01*
X145412D01*
X145969Y31275D01*
Y30160D01*
X145412Y29603D01*
X190769Y23469D02*
X187424D01*
Y25142D01*
X187981Y25699D01*
X189097D01*
X189654Y25142D01*
Y23469D01*
Y24584D02*
X190769Y25699D01*
Y26815D02*
Y27930D01*
Y27372D01*
X187424D01*
X187981Y26815D01*
X187424Y31833D02*
X187981Y30718D01*
X189097Y29603D01*
X190212D01*
X190769Y30160D01*
Y31275D01*
X190212Y31833D01*
X189654D01*
X189097Y31275D01*
Y29603D01*
X92613Y49777D02*
X89267D01*
Y51450D01*
X89825Y52007D01*
X90940D01*
X91497Y51450D01*
Y49777D01*
Y50892D02*
X92613Y52007D01*
Y53123D02*
Y54238D01*
Y53680D01*
X89267D01*
X89825Y53123D01*
X89267Y55910D02*
Y58141D01*
X89825D01*
X92055Y55910D01*
X92613D01*
X184369Y23469D02*
X181024D01*
Y25142D01*
X181581Y25699D01*
X182697D01*
X183254Y25142D01*
Y23469D01*
Y24584D02*
X184369Y25699D01*
Y26815D02*
Y27930D01*
Y27372D01*
X181024D01*
X181581Y26815D01*
Y29603D02*
X181024Y30160D01*
Y31275D01*
X181581Y31833D01*
X182139D01*
X182697Y31275D01*
X183254Y31833D01*
X183812D01*
X184369Y31275D01*
Y30160D01*
X183812Y29603D01*
X183254D01*
X182697Y30160D01*
X182139Y29603D01*
X181581D01*
X182697Y30160D02*
Y31275D01*
X11836Y110261D02*
Y118135D01*
Y25D02*
Y7899D01*
X25D02*
X11836D01*
X25Y110261D02*
X11836D01*
Y25D02*
X340576D01*
Y118135D01*
X11836D02*
X340576D01*
X25Y7899D02*
Y110261D01*
D14*
X350362Y13874D02*
X352362Y7874D01*
X354362Y13874D01*
X352362Y110236D02*
X354362Y104236D01*
X350362D02*
X352362Y110236D01*
Y7874D02*
Y42360D01*
Y72551D02*
Y110236D01*
X13780Y7874D02*
X353362D01*
X13780Y110236D02*
X353362D01*
X11836Y150591D02*
X17836Y152591D01*
X11836Y150591D02*
X17836Y148591D01*
X334576D02*
X340576Y150591D01*
X334576Y152591D02*
X340576Y150591D01*
X11836D02*
X159511D01*
X189702D02*
X340576D01*
X11836Y119529D02*
Y151591D01*
X340576Y119529D02*
Y151591D01*
X364173Y118135D02*
X366173Y112135D01*
X362173D02*
X364173Y118135D01*
X362173Y6025D02*
X364173Y25D01*
X366173Y6025D01*
X364173Y72576D02*
Y118135D01*
Y25D02*
Y42384D01*
X341970Y118135D02*
X365173D01*
X341970Y25D02*
X365173D01*
X25Y166339D02*
X6025Y168339D01*
X25Y166339D02*
X6025Y164339D01*
X334576D02*
X340576Y166339D01*
X334576Y168339D02*
X340576Y166339D01*
X25D02*
X153605D01*
X183796D02*
X340576D01*
X25Y111655D02*
Y167339D01*
X340576Y119529D02*
Y167339D01*
D16*
X355961Y47958D02*
Y43960D01*
X351962Y47958D01*
X350963D01*
X349963Y46959D01*
Y44959D01*
X350963Y43960D01*
X349963Y53956D02*
X350963Y51957D01*
X352962Y49957D01*
X354961D01*
X355961Y50957D01*
Y52957D01*
X354961Y53956D01*
X353962D01*
X352962Y52957D01*
Y49957D01*
X355961Y55956D02*
X354961D01*
Y56955D01*
X355961D01*
Y55956D01*
X350963Y60954D02*
X349963Y61954D01*
Y63953D01*
X350963Y64953D01*
X354961D01*
X355961Y63953D01*
Y61954D01*
X354961Y60954D01*
X350963D01*
Y66952D02*
X349963Y67952D01*
Y69951D01*
X350963Y70951D01*
X354961D01*
X355961Y69951D01*
Y67952D01*
X354961Y66952D01*
X350963D01*
X161110Y151990D02*
X162110Y152990D01*
X164110D01*
X165109Y151990D01*
Y150990D01*
X164110Y149991D01*
X165109Y148991D01*
Y147991D01*
X164110Y146992D01*
X162110D01*
X161110Y147991D01*
Y148991D01*
X162110Y149991D01*
X161110Y150990D01*
Y151990D01*
X162110Y149991D02*
X164110D01*
X167109Y151990D02*
X168108Y152990D01*
X170107D01*
X171107Y151990D01*
Y150990D01*
X170107Y149991D01*
X169108D01*
X170107D01*
X171107Y148991D01*
Y147991D01*
X170107Y146992D01*
X168108D01*
X167109Y147991D01*
X173107Y146992D02*
Y147991D01*
X174106D01*
Y146992D01*
X173107D01*
X182104Y152990D02*
X178105D01*
Y149991D01*
X180104Y150990D01*
X181104D01*
X182104Y149991D01*
Y147991D01*
X181104Y146992D01*
X179105D01*
X178105Y147991D01*
X184103Y151990D02*
X185103Y152990D01*
X187102D01*
X188102Y151990D01*
Y147991D01*
X187102Y146992D01*
X185103D01*
X184103Y147991D01*
Y151990D01*
X362774Y43984D02*
X361774Y44984D01*
Y46984D01*
X362774Y47983D01*
X363773D01*
X364773Y46984D01*
Y45984D01*
Y46984D01*
X365773Y47983D01*
X366773D01*
X367772Y46984D01*
Y44984D01*
X366773Y43984D01*
X362774Y49983D02*
X361774Y50982D01*
Y52982D01*
X362774Y53981D01*
X366773D01*
X367772Y52982D01*
Y50982D01*
X366773Y49983D01*
X362774D01*
X367772Y55981D02*
X366773D01*
Y56980D01*
X367772D01*
Y55981D01*
X362774Y60979D02*
X361774Y61979D01*
Y63978D01*
X362774Y64978D01*
X366773D01*
X367772Y63978D01*
Y61979D01*
X366773Y60979D01*
X362774D01*
Y66977D02*
X361774Y67977D01*
Y69976D01*
X362774Y70976D01*
X366773D01*
X367772Y69976D01*
Y67977D01*
X366773Y66977D01*
X362774D01*
X155205Y167738D02*
X156205Y168738D01*
X158204D01*
X159204Y167738D01*
Y166738D01*
X158204Y165739D01*
X159204Y164739D01*
Y163739D01*
X158204Y162740D01*
X156205D01*
X155205Y163739D01*
Y164739D01*
X156205Y165739D01*
X155205Y166738D01*
Y167738D01*
X156205Y165739D02*
X158204D01*
X165202Y168738D02*
X163202Y167738D01*
X161203Y165739D01*
Y163739D01*
X162203Y162740D01*
X164202D01*
X165202Y163739D01*
Y164739D01*
X164202Y165739D01*
X161203D01*
X167201Y162740D02*
Y163739D01*
X168201D01*
Y162740D01*
X167201D01*
X176198Y168738D02*
X172199D01*
Y165739D01*
X174199Y166738D01*
X175198D01*
X176198Y165739D01*
Y163739D01*
X175198Y162740D01*
X173199D01*
X172199Y163739D01*
X178198Y167738D02*
X179197Y168738D01*
X181196D01*
X182196Y167738D01*
Y163739D01*
X181196Y162740D01*
X179197D01*
X178198Y163739D01*
Y167738D01*
D67*
X324114Y32677D02*
Y32972D01*
X325000Y33858D01*
M02*
