G04*
G04 #@! TF.GenerationSoftware,Altium Limited,Altium Designer,22.6.1 (34)*
G04*
G04 Layer_Color=8388736*
%FSLAX25Y25*%
%MOIN*%
G70*
G04*
G04 #@! TF.SameCoordinates,4A999195-7229-471D-A063-F470427C1832*
G04*
G04*
G04 #@! TF.FilePolarity,Negative*
G04*
G01*
G75*
%ADD13C,0.00787*%
%ADD14C,0.01000*%
%ADD16C,0.00600*%
%ADD36R,0.03162X0.06509*%
%ADD37R,0.13005X0.10288*%
%ADD38R,0.03753X0.03359*%
%ADD39R,0.14186X0.05721*%
%ADD40R,0.06312X0.02375*%
%ADD41R,0.04147X0.01784*%
%ADD42R,0.07099X0.06706*%
%ADD43R,0.04343X0.04540*%
%ADD44R,0.05721X0.06312*%
%ADD45R,0.04540X0.04343*%
%ADD46R,0.03950X0.02375*%
%ADD47R,0.04343X0.04540*%
%ADD48R,0.01981X0.05524*%
%ADD49R,0.05524X0.01981*%
%ADD50R,0.02080X0.01981*%
%ADD51R,0.04186X0.11233*%
%ADD52R,0.02572X0.02178*%
%ADD53R,0.04540X0.04343*%
%ADD54R,0.03162X0.02965*%
%ADD55C,0.04737*%
%ADD56C,0.03950*%
%ADD57C,0.02769*%
D13*
X11836Y110261D02*
Y118135D01*
Y25D02*
Y7899D01*
X25D02*
X11836D01*
X25Y110261D02*
X11836D01*
Y25D02*
X340576D01*
Y118135D01*
X11836D02*
X340576D01*
X25Y7899D02*
Y110261D01*
D14*
X350362Y13874D02*
X352362Y7874D01*
X354362Y13874D01*
X352362Y110236D02*
X354362Y104236D01*
X350362D02*
X352362Y110236D01*
Y7874D02*
Y42360D01*
Y72551D02*
Y110236D01*
X13780Y7874D02*
X353362D01*
X13780Y110236D02*
X353362D01*
X11836Y150591D02*
X17836Y152591D01*
X11836Y150591D02*
X17836Y148591D01*
X334576D02*
X340576Y150591D01*
X334576Y152591D02*
X340576Y150591D01*
X11836D02*
X159511D01*
X189702D02*
X340576D01*
X11836Y119529D02*
Y151591D01*
X340576Y119529D02*
Y151591D01*
X364173Y118135D02*
X366173Y112135D01*
X362173D02*
X364173Y118135D01*
X362173Y6025D02*
X364173Y25D01*
X366173Y6025D01*
X364173Y72576D02*
Y118135D01*
Y25D02*
Y42384D01*
X341970Y118135D02*
X365173D01*
X341970Y25D02*
X365173D01*
X25Y166339D02*
X6025Y168339D01*
X25Y166339D02*
X6025Y164339D01*
X334576D02*
X340576Y166339D01*
X334576Y168339D02*
X340576Y166339D01*
X25D02*
X153605D01*
X183796D02*
X340576D01*
X25Y111655D02*
Y167339D01*
X340576Y119529D02*
Y167339D01*
D16*
X355961Y47958D02*
Y43960D01*
X351962Y47958D01*
X350963D01*
X349963Y46959D01*
Y44959D01*
X350963Y43960D01*
X349963Y53956D02*
X350963Y51957D01*
X352962Y49957D01*
X354961D01*
X355961Y50957D01*
Y52957D01*
X354961Y53956D01*
X353962D01*
X352962Y52957D01*
Y49957D01*
X355961Y55956D02*
X354961D01*
Y56955D01*
X355961D01*
Y55956D01*
X350963Y60954D02*
X349963Y61954D01*
Y63953D01*
X350963Y64953D01*
X354961D01*
X355961Y63953D01*
Y61954D01*
X354961Y60954D01*
X350963D01*
Y66952D02*
X349963Y67952D01*
Y69951D01*
X350963Y70951D01*
X354961D01*
X355961Y69951D01*
Y67952D01*
X354961Y66952D01*
X350963D01*
X161110Y151990D02*
X162110Y152990D01*
X164110D01*
X165109Y151990D01*
Y150990D01*
X164110Y149991D01*
X165109Y148991D01*
Y147991D01*
X164110Y146992D01*
X162110D01*
X161110Y147991D01*
Y148991D01*
X162110Y149991D01*
X161110Y150990D01*
Y151990D01*
X162110Y149991D02*
X164110D01*
X167109Y151990D02*
X168108Y152990D01*
X170107D01*
X171107Y151990D01*
Y150990D01*
X170107Y149991D01*
X169108D01*
X170107D01*
X171107Y148991D01*
Y147991D01*
X170107Y146992D01*
X168108D01*
X167109Y147991D01*
X173107Y146992D02*
Y147991D01*
X174106D01*
Y146992D01*
X173107D01*
X182104Y152990D02*
X178105D01*
Y149991D01*
X180104Y150990D01*
X181104D01*
X182104Y149991D01*
Y147991D01*
X181104Y146992D01*
X179105D01*
X178105Y147991D01*
X184103Y151990D02*
X185103Y152990D01*
X187102D01*
X188102Y151990D01*
Y147991D01*
X187102Y146992D01*
X185103D01*
X184103Y147991D01*
Y151990D01*
X362774Y43984D02*
X361774Y44984D01*
Y46984D01*
X362774Y47983D01*
X363773D01*
X364773Y46984D01*
Y45984D01*
Y46984D01*
X365773Y47983D01*
X366773D01*
X367772Y46984D01*
Y44984D01*
X366773Y43984D01*
X362774Y49983D02*
X361774Y50982D01*
Y52982D01*
X362774Y53981D01*
X366773D01*
X367772Y52982D01*
Y50982D01*
X366773Y49983D01*
X362774D01*
X367772Y55981D02*
X366773D01*
Y56980D01*
X367772D01*
Y55981D01*
X362774Y60979D02*
X361774Y61979D01*
Y63978D01*
X362774Y64978D01*
X366773D01*
X367772Y63978D01*
Y61979D01*
X366773Y60979D01*
X362774D01*
Y66977D02*
X361774Y67977D01*
Y69976D01*
X362774Y70976D01*
X366773D01*
X367772Y69976D01*
Y67977D01*
X366773Y66977D01*
X362774D01*
X155205Y167738D02*
X156205Y168738D01*
X158204D01*
X159204Y167738D01*
Y166738D01*
X158204Y165739D01*
X159204Y164739D01*
Y163739D01*
X158204Y162740D01*
X156205D01*
X155205Y163739D01*
Y164739D01*
X156205Y165739D01*
X155205Y166738D01*
Y167738D01*
X156205Y165739D02*
X158204D01*
X165202Y168738D02*
X163202Y167738D01*
X161203Y165739D01*
Y163739D01*
X162203Y162740D01*
X164202D01*
X165202Y163739D01*
Y164739D01*
X164202Y165739D01*
X161203D01*
X167201Y162740D02*
Y163739D01*
X168201D01*
Y162740D01*
X167201D01*
X176198Y168738D02*
X172199D01*
Y165739D01*
X174199Y166738D01*
X175198D01*
X176198Y165739D01*
Y163739D01*
X175198Y162740D01*
X173199D01*
X172199Y163739D01*
X178198Y167738D02*
X179197Y168738D01*
X181196D01*
X182196Y167738D01*
Y163739D01*
X181196Y162740D01*
X179197D01*
X178198Y163739D01*
Y167738D01*
D36*
X15138Y13878D02*
D03*
X20138D02*
D03*
X25138D02*
D03*
X30138D02*
D03*
X15138Y35335D02*
D03*
X20138D02*
D03*
X25138D02*
D03*
X30138D02*
D03*
X51791Y69784D02*
D03*
X46791D02*
D03*
X41791D02*
D03*
X36791D02*
D03*
X51791Y48327D02*
D03*
X46791D02*
D03*
X41791D02*
D03*
X36791D02*
D03*
X52776Y35335D02*
D03*
X47776D02*
D03*
X42776D02*
D03*
X37776D02*
D03*
X52776Y13878D02*
D03*
X47776D02*
D03*
X42776D02*
D03*
X37776D02*
D03*
X51791Y103248D02*
D03*
X46791D02*
D03*
X41791D02*
D03*
X36791D02*
D03*
X51791Y81791D02*
D03*
X46791D02*
D03*
X41791D02*
D03*
X36791D02*
D03*
X30138Y103248D02*
D03*
X25138D02*
D03*
X20138D02*
D03*
X15138D02*
D03*
X30138Y81791D02*
D03*
X25138D02*
D03*
X20138D02*
D03*
X15138D02*
D03*
D37*
X22638Y24606D02*
D03*
D38*
X330610Y15256D02*
D03*
Y12303D02*
D03*
X334744Y15256D02*
D03*
Y12303D02*
D03*
D39*
X23622Y48327D02*
D03*
Y71752D02*
D03*
D40*
X121260Y78543D02*
D03*
Y75984D02*
D03*
Y73425D02*
D03*
Y70866D02*
D03*
Y68307D02*
D03*
Y65748D02*
D03*
Y63189D02*
D03*
X144488Y78543D02*
D03*
Y75984D02*
D03*
Y73425D02*
D03*
Y70866D02*
D03*
Y68307D02*
D03*
Y65748D02*
D03*
Y63189D02*
D03*
X155709Y77559D02*
D03*
Y75000D02*
D03*
Y72441D02*
D03*
Y69882D02*
D03*
Y67323D02*
D03*
Y64764D02*
D03*
Y62205D02*
D03*
X178937Y77559D02*
D03*
Y75000D02*
D03*
Y72441D02*
D03*
Y69882D02*
D03*
Y67323D02*
D03*
Y64764D02*
D03*
Y62205D02*
D03*
X85827Y77559D02*
D03*
Y75000D02*
D03*
Y72441D02*
D03*
Y69882D02*
D03*
Y67323D02*
D03*
Y64764D02*
D03*
Y62205D02*
D03*
X109055Y77559D02*
D03*
Y75000D02*
D03*
Y72441D02*
D03*
Y69882D02*
D03*
Y67323D02*
D03*
Y64764D02*
D03*
Y62205D02*
D03*
D41*
X228661Y76772D02*
D03*
Y74803D02*
D03*
Y72835D02*
D03*
Y70866D02*
D03*
X239843Y76772D02*
D03*
Y74803D02*
D03*
Y72835D02*
D03*
Y70866D02*
D03*
D42*
X234252Y73819D02*
D03*
D43*
X235531Y35433D02*
D03*
X223130D02*
D03*
X236516Y22638D02*
D03*
X224114D02*
D03*
X234252Y47244D02*
D03*
X221850D02*
D03*
X121159Y85614D02*
D03*
X127262D02*
D03*
X133605D02*
D03*
X139707D02*
D03*
X96268D02*
D03*
X102370D02*
D03*
X108714D02*
D03*
X114816D02*
D03*
X146051D02*
D03*
X152153D02*
D03*
D44*
X231890Y61024D02*
D03*
X225394D02*
D03*
D45*
X133426Y104698D02*
D03*
Y110801D02*
D03*
X126886Y104698D02*
D03*
Y110801D02*
D03*
X153047Y104698D02*
D03*
Y110801D02*
D03*
X159587Y104698D02*
D03*
Y110801D02*
D03*
X107413Y10630D02*
D03*
Y16732D02*
D03*
X185895Y10630D02*
D03*
Y16732D02*
D03*
X172814Y10630D02*
D03*
Y16732D02*
D03*
X192435Y10630D02*
D03*
Y16732D02*
D03*
X179354Y10630D02*
D03*
Y16732D02*
D03*
X114039Y36938D02*
D03*
Y43040D02*
D03*
X94418Y36938D02*
D03*
Y43040D02*
D03*
X100958Y36938D02*
D03*
Y43040D02*
D03*
X120579Y36938D02*
D03*
Y43040D02*
D03*
X107499Y36938D02*
D03*
Y43040D02*
D03*
X133573Y10630D02*
D03*
Y16732D02*
D03*
X127033Y10630D02*
D03*
Y16732D02*
D03*
X120493Y10630D02*
D03*
Y16732D02*
D03*
X113953Y10630D02*
D03*
Y16732D02*
D03*
X159734Y10630D02*
D03*
Y16732D02*
D03*
X140113Y10630D02*
D03*
Y16732D02*
D03*
X146653Y10630D02*
D03*
Y16732D02*
D03*
X166274Y10630D02*
D03*
Y16732D02*
D03*
X153194Y10630D02*
D03*
Y16732D02*
D03*
X81252Y10630D02*
D03*
Y16732D02*
D03*
X100872Y10630D02*
D03*
Y16732D02*
D03*
X94332Y10630D02*
D03*
Y16732D02*
D03*
X146506Y104698D02*
D03*
Y110801D02*
D03*
X139966Y104698D02*
D03*
Y110801D02*
D03*
X87792Y10630D02*
D03*
Y16732D02*
D03*
X140199Y36938D02*
D03*
Y43040D02*
D03*
X166360Y36938D02*
D03*
Y43040D02*
D03*
X133659Y36938D02*
D03*
Y43040D02*
D03*
X159820Y36938D02*
D03*
Y43040D02*
D03*
X153280Y36938D02*
D03*
Y43040D02*
D03*
X119272Y92056D02*
D03*
Y98158D02*
D03*
X127119Y36938D02*
D03*
Y43040D02*
D03*
X145432Y92056D02*
D03*
Y98158D02*
D03*
X151973Y92056D02*
D03*
Y98158D02*
D03*
X158513Y92056D02*
D03*
Y98158D02*
D03*
X125812Y92056D02*
D03*
Y98158D02*
D03*
X132352Y92056D02*
D03*
Y98158D02*
D03*
X138892Y92056D02*
D03*
Y98158D02*
D03*
X93111Y92056D02*
D03*
Y98158D02*
D03*
X86571Y92056D02*
D03*
Y98158D02*
D03*
X179440Y36938D02*
D03*
Y43040D02*
D03*
X112732Y92056D02*
D03*
Y98158D02*
D03*
X99651Y92056D02*
D03*
Y98158D02*
D03*
X106191Y92056D02*
D03*
Y98158D02*
D03*
X172900Y36938D02*
D03*
Y43040D02*
D03*
X146739Y36938D02*
D03*
Y43040D02*
D03*
D46*
X322539Y26969D02*
D03*
Y32087D02*
D03*
X331004Y29528D02*
D03*
D47*
X104625Y55584D02*
D03*
Y49482D02*
D03*
X149425Y55584D02*
D03*
Y49482D02*
D03*
X155825Y55584D02*
D03*
Y49482D02*
D03*
X143025Y55584D02*
D03*
Y49482D02*
D03*
X136625Y55584D02*
D03*
Y49482D02*
D03*
X130225Y55584D02*
D03*
Y49482D02*
D03*
X177182Y29276D02*
D03*
Y23174D02*
D03*
X170782Y29276D02*
D03*
Y23174D02*
D03*
X100382Y29276D02*
D03*
Y23174D02*
D03*
X93982Y29276D02*
D03*
Y23174D02*
D03*
X87582Y29276D02*
D03*
Y23174D02*
D03*
X81182Y29276D02*
D03*
Y23174D02*
D03*
X125982Y29276D02*
D03*
Y23174D02*
D03*
X132382Y29276D02*
D03*
Y23174D02*
D03*
X119582Y29276D02*
D03*
Y23174D02*
D03*
X106782Y29276D02*
D03*
Y23174D02*
D03*
X181425Y55584D02*
D03*
Y49482D02*
D03*
X113182Y29276D02*
D03*
Y23174D02*
D03*
X88416Y110702D02*
D03*
Y104600D02*
D03*
X175025Y55584D02*
D03*
Y49482D02*
D03*
X120416Y110702D02*
D03*
Y104600D02*
D03*
X114016Y110702D02*
D03*
Y104600D02*
D03*
X168625Y55584D02*
D03*
Y49482D02*
D03*
X162225Y55584D02*
D03*
Y49482D02*
D03*
X107616Y110702D02*
D03*
Y104600D02*
D03*
X94816Y110702D02*
D03*
Y104600D02*
D03*
X111025Y55584D02*
D03*
Y49482D02*
D03*
X123825Y55584D02*
D03*
Y49482D02*
D03*
X117425Y55584D02*
D03*
Y49482D02*
D03*
X101216Y110702D02*
D03*
Y104600D02*
D03*
X98225Y55584D02*
D03*
Y49482D02*
D03*
X157982Y29276D02*
D03*
Y23174D02*
D03*
X164382Y29276D02*
D03*
Y23174D02*
D03*
X138782Y29276D02*
D03*
Y23174D02*
D03*
X151582Y29276D02*
D03*
Y23174D02*
D03*
X145182Y29276D02*
D03*
Y23174D02*
D03*
X189982Y29276D02*
D03*
Y23174D02*
D03*
X91825Y55584D02*
D03*
Y49482D02*
D03*
X183582Y29276D02*
D03*
Y23174D02*
D03*
D48*
X274606Y106299D02*
D03*
X276575D02*
D03*
X278543D02*
D03*
X280512D02*
D03*
X282480D02*
D03*
X284449D02*
D03*
X286417D02*
D03*
X288386D02*
D03*
X290354D02*
D03*
X292323D02*
D03*
X294291D02*
D03*
X296260D02*
D03*
X298228D02*
D03*
X300197D02*
D03*
X302165D02*
D03*
X304134D02*
D03*
X306102D02*
D03*
X308071D02*
D03*
X310039D02*
D03*
X312008D02*
D03*
X313976D02*
D03*
X315945D02*
D03*
X317913D02*
D03*
X319882D02*
D03*
X321850D02*
D03*
Y45276D02*
D03*
X319882D02*
D03*
X317913D02*
D03*
X315945D02*
D03*
X313976D02*
D03*
X312008D02*
D03*
X310039D02*
D03*
X308071D02*
D03*
X306102D02*
D03*
X304134D02*
D03*
X302165D02*
D03*
X300197D02*
D03*
X298228D02*
D03*
X296260D02*
D03*
X294291D02*
D03*
X292323D02*
D03*
X290354D02*
D03*
X288386D02*
D03*
X286417D02*
D03*
X284449D02*
D03*
X282480D02*
D03*
X280512D02*
D03*
X278543D02*
D03*
X276575D02*
D03*
X274606D02*
D03*
D49*
X328740Y99410D02*
D03*
Y97441D02*
D03*
Y95472D02*
D03*
Y93504D02*
D03*
Y91535D02*
D03*
Y89567D02*
D03*
Y87598D02*
D03*
Y85630D02*
D03*
Y83661D02*
D03*
Y81693D02*
D03*
Y79724D02*
D03*
Y77756D02*
D03*
Y75787D02*
D03*
Y73819D02*
D03*
Y71850D02*
D03*
Y69882D02*
D03*
Y67913D02*
D03*
Y65945D02*
D03*
Y63976D02*
D03*
Y62008D02*
D03*
Y60039D02*
D03*
Y58071D02*
D03*
Y56102D02*
D03*
Y54134D02*
D03*
Y52165D02*
D03*
X267717D02*
D03*
Y54134D02*
D03*
Y56102D02*
D03*
Y58071D02*
D03*
Y60039D02*
D03*
Y62008D02*
D03*
Y63976D02*
D03*
Y65945D02*
D03*
Y67913D02*
D03*
Y69882D02*
D03*
Y71850D02*
D03*
Y73819D02*
D03*
Y75787D02*
D03*
Y77756D02*
D03*
Y79724D02*
D03*
Y81693D02*
D03*
Y83661D02*
D03*
Y85630D02*
D03*
Y87598D02*
D03*
Y89567D02*
D03*
Y91535D02*
D03*
Y93504D02*
D03*
Y95472D02*
D03*
Y97441D02*
D03*
Y99410D02*
D03*
D50*
X275590Y31496D02*
D03*
X277559D02*
D03*
X279528D02*
D03*
X281496D02*
D03*
X275590Y29528D02*
D03*
X281496D02*
D03*
X275590Y27559D02*
D03*
X281496D02*
D03*
X275590Y25591D02*
D03*
X277559D02*
D03*
X279528D02*
D03*
X281496D02*
D03*
X9843Y56102D02*
D03*
X7874D02*
D03*
X5906D02*
D03*
X3937D02*
D03*
X9843Y58071D02*
D03*
X3937D02*
D03*
X9843Y60039D02*
D03*
X3937D02*
D03*
X9843Y62008D02*
D03*
X7874D02*
D03*
X5906D02*
D03*
X3937D02*
D03*
D51*
X233268Y91535D02*
D03*
D52*
X236634Y86614D02*
D03*
Y88583D02*
D03*
Y90551D02*
D03*
Y92520D02*
D03*
Y94488D02*
D03*
Y96457D02*
D03*
X229902Y86614D02*
D03*
Y88583D02*
D03*
Y90551D02*
D03*
Y92520D02*
D03*
Y94488D02*
D03*
Y96457D02*
D03*
D53*
X247505Y6890D02*
D03*
X253608D02*
D03*
X228323D02*
D03*
X222220D02*
D03*
X234350Y14764D02*
D03*
X228248D02*
D03*
X266250Y6890D02*
D03*
X260148D02*
D03*
X316821D02*
D03*
X310718D02*
D03*
X329463D02*
D03*
X323361D02*
D03*
X258071Y29528D02*
D03*
X251969D02*
D03*
X278893Y6890D02*
D03*
X272791D02*
D03*
X304178D02*
D03*
X298076D02*
D03*
X291535D02*
D03*
X285433D02*
D03*
D54*
X300098Y12795D02*
D03*
X296358D02*
D03*
X281398Y11811D02*
D03*
X277658D02*
D03*
X307972Y12795D02*
D03*
X304232D02*
D03*
X317815D02*
D03*
X314075D02*
D03*
D55*
X209646Y104842D02*
D03*
Y99843D02*
D03*
Y94842D02*
D03*
Y89842D02*
D03*
Y84842D02*
D03*
Y79843D02*
D03*
Y74843D02*
D03*
Y69842D02*
D03*
Y64842D02*
D03*
Y59842D02*
D03*
Y54843D02*
D03*
Y49843D02*
D03*
Y44842D02*
D03*
Y39843D02*
D03*
Y34843D02*
D03*
Y29842D02*
D03*
Y24843D02*
D03*
Y19842D02*
D03*
Y14842D02*
D03*
Y9843D02*
D03*
X199803Y104842D02*
D03*
Y99843D02*
D03*
Y94842D02*
D03*
Y89842D02*
D03*
Y84842D02*
D03*
Y79843D02*
D03*
Y74843D02*
D03*
Y69842D02*
D03*
Y64842D02*
D03*
Y59842D02*
D03*
Y54843D02*
D03*
Y49843D02*
D03*
Y44842D02*
D03*
Y39843D02*
D03*
Y34843D02*
D03*
Y29842D02*
D03*
Y24843D02*
D03*
Y19842D02*
D03*
Y14842D02*
D03*
Y9843D02*
D03*
X73819Y104842D02*
D03*
Y99843D02*
D03*
Y94842D02*
D03*
Y89842D02*
D03*
Y84842D02*
D03*
Y79843D02*
D03*
Y74843D02*
D03*
Y69842D02*
D03*
Y64842D02*
D03*
Y59842D02*
D03*
Y54843D02*
D03*
Y49843D02*
D03*
Y44842D02*
D03*
Y39843D02*
D03*
Y34843D02*
D03*
Y29842D02*
D03*
Y24843D02*
D03*
Y19842D02*
D03*
Y14842D02*
D03*
Y9843D02*
D03*
X62992Y105394D02*
D03*
Y100394D02*
D03*
Y95394D02*
D03*
Y90394D02*
D03*
Y85394D02*
D03*
Y80394D02*
D03*
Y75394D02*
D03*
Y70394D02*
D03*
Y65394D02*
D03*
Y60394D02*
D03*
Y55394D02*
D03*
Y50394D02*
D03*
Y45394D02*
D03*
Y40394D02*
D03*
Y35394D02*
D03*
Y30394D02*
D03*
Y25394D02*
D03*
Y20394D02*
D03*
Y15394D02*
D03*
Y10394D02*
D03*
D56*
X248031Y51181D02*
D03*
X254921Y54134D02*
D03*
X251969Y66929D02*
D03*
Y82677D02*
D03*
X303150Y22638D02*
D03*
X313976D02*
D03*
X254921Y44291D02*
D03*
X247047Y40354D02*
D03*
X269685Y16732D02*
D03*
X286417Y14764D02*
D03*
X249016Y97441D02*
D03*
X265748Y40354D02*
D03*
D57*
X18307Y22441D02*
D03*
Y26772D02*
D03*
X22638Y22441D02*
D03*
Y26772D02*
D03*
X26969Y22441D02*
D03*
Y26772D02*
D03*
M02*
