M48
;Layer_Color=9474304
;FILE_FORMAT=2:5
INCH,TZ
;TYPE=PLATED
T1F00S00C0.00787
T2F00S00C0.01968
T3F00S00C0.02362
%
T01
X18307Y22441
Y26772
X22638
Y22441
X26969
Y26772
T02
X269685Y16732
X286417Y14764
X303150Y22638
X265748Y40354
X254921Y44291
Y54134
X248031Y51181
X247047Y40354
X251969Y66929
Y82677
X249016Y97441
X313976Y22638
T03
X62992Y10394
Y15394
Y20394
Y25394
Y30394
Y35394
Y40394
Y45394
Y50394
Y55394
Y60394
Y65394
Y70394
Y75394
Y80394
Y85394
Y90394
Y95394
Y100394
Y105394
X73819Y104842
Y99843
Y94842
Y89842
Y84842
Y79843
Y74843
Y69842
Y64842
Y59842
Y54843
Y49843
Y44842
Y39843
Y34843
Y29842
Y24843
Y19842
Y14842
Y9843
X199803
Y14842
Y19842
Y24843
Y29842
Y34843
Y39843
Y44842
Y49843
Y54843
Y59842
Y64842
Y69842
Y74843
Y79843
Y84842
Y89842
Y94842
Y99843
Y104842
X209646
Y99843
Y94842
Y89842
Y84842
Y79843
Y74843
Y69842
Y64842
Y59842
Y54843
Y49843
Y44842
Y39843
Y34843
Y29842
Y24843
Y19842
Y14842
Y9843
M30
